{
.appVersion = "3148";
.formatVersion = 3;
date = "2022-10-13 19:52:38 +0000";
familyName = Cannery;
featurePrefixes = (
{
automatic = 1;
code = "languagesystem DFLT dflt;
";
name = Languagesystems;
}
);
features = (
{
automatic = 1;
code = "feature onum;
feature case;
";
tag = aalt;
},
{
automatic = 1;
code = "sub zero by zero.osf;
sub one by one.osf;
sub two by two.osf;
sub three by three.osf;
sub four by four.osf;
sub five by five.osf;
sub six by six.osf;
sub seven by seven.osf;
sub eight by eight.osf;
sub nine by nine.osf;
";
tag = onum;
},
{
automatic = 1;
code = "sub zero.osf by zero;
sub one.osf by one;
sub two.osf by two;
sub three.osf by three;
sub four.osf by four;
sub five.osf by five;
sub six.osf by six;
sub seven.osf by seven;
sub eight.osf by eight;
sub nine.osf by nine;
";
tag = case;
},
{
automatic = 1;
code = "lookupflag IgnoreMarks;
sub a e by a_e;
sub f t by f_t;
sub o o by o_o;
sub q v by q_v;
";
tag = dlig;
},
{
code = "lookupflag IgnoreMarks;
sub f f i by f_f_i;
sub f f l by f_f_l;
sub f f by f_f;
sub f i by f_i;
sub f l by f_l;
sub o o o o o o o by omultiocular-cy;
sub a m o n g u s by nga-sinhala;
";
tag = liga;
}
);
fontMaster = (
{
id = m01;
metricValues = (
{
over = 16;
pos = 800;
},
{
over = 16;
pos = 700;
},
{
over = 16;
pos = 435;
},
{
over = -16;
},
{
over = -16;
pos = -200;
},
{
}
);
name = Regular;
visible = 1;
}
);
glyphs = (
{
glyphname = A;
lastChange = "2022-11-27 03:52:30 +0000";
layers = (
{
hints = (
{
name = _corner.leftSerif;
origin = (0,3);
type = Corner;
},
{
name = _corner.leftSerif;
origin = (0,15);
scale = (0.8,1);
type = Corner;
},
{
name = _corner.rightSerif;
options = 1;
origin = (0,0);
type = Corner;
},
{
name = _corner.rightSerif;
options = 1;
origin = (0,4);
scale = (0.8,1);
type = Corner;
}
);
layerId = m01;
shapes = (
{
closed = 1;
nodes = (
(174,0,l),
(252,224,l),
(488,224,l),
(559,0,l),
(659,0,l),
(421,705,ls),
(418,715,o),
(389,715,o),
(373,720,cs),
(367,722,o),
(359,720,o),
(363,714,cs),
(367,708,o),
(360,692,o),
(359,689,cs),
(118,0,l)
);
},
{
closed = 1;
nodes = (
(376,577,l),
(474,267,l),
(268,267,l)
);
}
);
width = 782;
}
);
metricLeft = O;
metricRight = O;
unicode = 65;
},
{
glyphname = B;
lastChange = "2022-11-18 16:04:32 +0000";
layers = (
{
layerId = m01;
shapes = (
{
closed = 1;
nodes = (
(445,0,ls),
(535,0,o),
(634,96,o),
(634,173,qs),
(634,237,o),
(583,322,o),
(519,362,o),
(503,362,q),
(516,362,o),
(560,401,o),
(593,472,o),
(593,519,qs),
(593,568,o),
(544,651,o),
(461,700,o),
(412,700,qs),
(125,700,l),
(125,0,l)
);
},
{
pos = (125,0);
ref = SerifBottomLeft;
},
{
closed = 1;
nodes = (
(268,42,o),
(233,55,o),
(222,84,o),
(222,115,qs),
(222,296,ls),
(222,317,o),
(225,330,o),
(237,333,o),
(256,333,qs),
(379,333,ls),
(446,333,o),
(537,248,o),
(537,163,qs),
(537,115,o),
(482,42,o),
(435,42,qs),
(306,42,ls)
);
},
{
angle = 180;
pos = (125,700);
ref = SerifBottomRight;
},
{
closed = 1;
nodes = (
(234,375,o),
(225,376,o),
(222,390,o),
(222,412,qs),
(222,577,ls),
(222,612,o),
(233,645,o),
(268,658,o),
(306,658,qs),
(363,658,ls),
(499,658,o),
(499,511,qs),
(499,459,o),
(452,375,o),
(412,375,qs),
(256,375,ls)
);
}
);
width = 679;
}
);
metricLeft = H;
metricRight = O;
unicode = 66;
},
{
glyphname = C;
lastChange = "2022-12-01 19:56:16 +0000";
layers = (
{
layerId = m01;
shapes = (
{
closed = 1;
nodes = (
(536,-15,o),
(604,68,o),
(638,105,c),
(604,120,l),
(568,81,o),
(512,33,o),
(406,33,cs),
(262,33,o),
(177,152,o),
(177,331,cs),
(177,549,o),
(288,673,o),
(401,673,cs),
(474,673,o),
(575,643,o),
(575,542,c),
(602,542,l),
(602,577,o),
(600,683,o),
(600,716,c),
(573,716,l),
(573,687,o),
(569,676,o),
(555,676,cs),
(535,676,o),
(498,715,o),
(381,715,cs),
(227,715,o),
(45,578,o),
(45,342,cs),
(45,139,o),
(193,-15,o),
(382,-15,cs)
);
}
);
width = 658;
}
);
metricLeft = O;
metricRight = H;
unicode = 67;
},
{
glyphname = D;
lastChange = "2022-11-18 02:46:37 +0000";
layers = (
{
layerId = m01;
shapes = (
{
closed = 1;
nodes = (
(221,0,l),
(390,0,l),
(511,0,o),
(680,158,o),
(680,351,c),
(680,543,o),
(536,700,o),
(366,700,c),
(331,700,l),
(221,700,l),
(185,700,l),
(125,700,l),
(125,0,l)
);
},
{
closed = 1;
nodes = (
(233,37,o),
(221,61,o),
(221,122,c),
(221,592,l),
(221,652,o),
(233,665,o),
(306,665,c),
(331,665,l),
(499,665,o),
(573,493,o),
(573,341,cs),
(573,165,o),
(479,37,o),
(355,37,c),
(306,37,l)
);
},
{
angle = 180;
pos = (125,700);
ref = SerifBottomRight;
},
{
pos = (125,0);
ref = SerifBottomLeft;
}
);
width = 725;
}
);
metricLeft = H;
metricRight = O;
unicode = 68;
},
{
glyphname = E;
lastChange = "2022-11-26 05:26:49 +0000";
layers = (
{
layerId = m01;
shapes = (
{
closed = 1;
nodes = (
(612,0,l),
(612,76,o),
(617,86,o),
(622,191,c),
(595,191,l),
(595,111,o),
(552,42,o),
(462,42,cs),
(306,42,ls),
(235,42,o),
(222,63,o),
(222,121,cs),
(222,302,ls),
(222,342,o),
(222,342,o),
(262,342,cs),
(278,342,ls),
(361,342,o),
(425,308,o),
(427,258,c),
(454,258,l),
(454,308,o),
(452,317,o),
(452,342,cs),
(452,384,ls),
(452,409,o),
(454,419,o),
(454,467,c),
(427,467,l),
(425,419,o),
(361,384,o),
(278,384,cs),
(262,384,ls),
(222,384,o),
(222,384,o),
(222,425,cs),
(222,625,ls),
(222,647,o),
(228,658,o),
(253,658,cs),
(471,658,l),
(471,700,l),
(125,700,l),
(125,0,l)
);
},
{
pos = (125,0);
ref = SerifBottomLeft;
},
{
angle = 180;
pos = (125,700);
ref = SerifBottomRight;
},
{
pos = (471,700);
ref = SerifDownEF;
}
);
width = 642;
}
);
metricLeft = H;
metricRight = H;
unicode = 69;
},
{
glyphname = F;
lastChange = "2022-11-26 01:04:33 +0000";
layers = (
{
layerId = m01;
shapes = (
{
pos = (455,700);
ref = SerifDownEF;
},
{
pos = (125,0);
ref = SerifBottomLeft;
},
{
angle = 180;
pos = (125,700);
ref = SerifBottomRight;
},
{
pos = (219,0);
ref = SerifBottomRight;
},
{
closed = 1;
nodes = (
(358,342,o),
(422,308,o),
(424,258,c),
(451,258,l),
(451,308,o),
(449,317,o),
(449,342,cs),
(449,384,ls),
(449,409,o),
(451,419,o),
(451,467,c),
(424,467,l),
(422,419,o),
(358,384,o),
(275,384,cs),
(259,384,ls),
(219,384,o),
(219,384,o),
(219,425,cs),
(219,583,l),
(219,641,o),
(232,658,o),
(304,658,cs),
(455,658,l),
(455,700,l),
(125,700,l),
(125,103,l),
(125,0,l),
(219,0,l),
(219,302,ls),
(219,342,o),
(219,342,o),
(259,342,cs),
(275,342,ls)
);
}
);
width = 602;
}
);
metricLeft = H;
metricRight = H;
unicode = 70;
},
{
glyphname = G;
lastChange = "2022-11-18 17:05:58 +0000";
layers = (
{
layerId = m01;
shapes = (
{
closed = 1;
nodes = (
(578,627,o),
(578,522,c),
(605,522,l),
(605,557,o),
(603,667,o),
(603,700,c),
(576,700,l),
(576,671,o),
(572,665,o),
(549,665,cs),
(504,665,o),
(487,715,o),
(378,715,cs),
(204,715,o),
(45,545,o),
(45,341,cs),
(45,142,o),
(198,-16,o),
(375,-16,cs),
(508,-16,o),
(523,17,o),
(558,18,cs),
(566,18,o),
(577,16,o),
(593,11,c),
(593,200,ls),
(593,219,o),
(593,243,o),
(628,243,c),
(628,270,l),
(426,270,l),
(426,243,l),
(496,243,o),
(497,225,o),
(497,189,cs),
(497,93,ls),
(497,69,o),
(472,26,o),
(391,26,cs),
(247,26,o),
(156,155,o),
(156,330,cs),
(156,469,o),
(222,672,o),
(378,672,cs),
(483,672,o)
);
}
);
width = 673;
}
);
metricLeft = O;
metricRight = O;
unicode = 71;
},
{
glyphname = H;
lastChange = "2022-11-18 02:37:29 +0000";
layers = (
{
layerId = m01;
shapes = (
{
closed = 1;
nodes = (
(222,0,l),
(222,301,l),
(222,344,o),
(222,344,o),
(258,344,cs),
(559,344,ls),
(595,344,o),
(595,344,o),
(595,301,cs),
(595,0,l),
(692,0,l),
(692,700,l),
(595,700,l),
(595,422,l),
(595,386,o),
(595,386,o),
(559,386,cs),
(258,386,ls),
(222,386,o),
(222,386,o),
(222,422,c),
(222,700,l),
(125,700,l),
(125,0,l)
);
},
{
pos = (125,0);
ref = SerifBottomLeft;
},
{
pos = (692,0);
ref = SerifBottomRight;
},
{
pos = (222,0);
ref = SerifBottomRight;
},
{
pos = (595,0);
ref = SerifBottomLeft;
},
{
angle = 180;
pos = (125,700);
ref = SerifBottomRight;
},
{
angle = 180;
pos = (595,700);
ref = SerifBottomRight;
},
{
angle = 180;
pos = (222,700);
ref = SerifBottomLeft;
},
{
angle = 180;
pos = (692,700);
ref = SerifBottomLeft;
}
);
width = 808;
}
);
metricLeft = H;
metricRight = H;
unicode = 72;
},
{
glyphname = I;
lastChange = "2022-11-18 02:40:54 +0000";
layers = (
{
layerId = m01;
shapes = (
{
closed = 1;
nodes = (
(223,700,l),
(125,700,l),
(125,0,l),
(223,0,l)
);
},
{
pos = (223,0);
ref = SerifBottomRight;
},
{
angle = 180;
pos = (125,700);
ref = SerifBottomRight;
},
{
pos = (125,0);
ref = SerifBottomLeft;
},
{
angle = 180;
pos = (223,700);
ref = SerifBottomLeft;
}
);
width = 339;
}
);
metricLeft = H;
metricRight = H;
unicode = 73;
},
{
glyphname = J;
lastChange = "2022-11-18 15:27:25 +0000";
layers = (
{
layerId = m01;
shapes = (
{
angle = 180;
pos = (360,700);
ref = SerifBottomLeft;
},
{
angle = 180;
pos = (263,700);
ref = SerifBottomRight;
},
{
closed = 1;
nodes = (
(263,-139,o),
(253,-176,o),
(188,-176,cs),
(150,-176,o),
(125,-145,o),
(120,-114,cs),
(117,-84,o),
(101,-60,o),
(70,-65,cs),
(45,-68,o),
(27,-89,o),
(29,-115,cs),
(37,-173,o),
(118,-221,o),
(194,-221,cs),
(286,-221,o),
(360,-177,o),
(360,-69,cs),
(360,700,l),
(263,700,l),
(263,-86,ls)
);
}
);
width = 476;
}
);
metricLeft = H;
metricRight = H;
unicode = 74;
},
{
glyphname = K;
lastChange = "2022-12-03 07:54:14 +0000";
layers = (
{
hints = (
{
name = _corner.leftSerif;
origin = (0,12);
type = Corner;
},
{
name = _corner.rightSerif;
options = 1;
origin = (0,13);
type = Corner;
},
{
name = _corner.rightSerif;
options = 1;
origin = (0,10);
scale = (0.7,1);
type = Corner;
}
);
layerId = m01;
shapes = (
{
closed = 1;
nodes = (
(222,0,l),
(222,225,l),
(293,320,l),
(412,166,l),
(496,56,o),
(496,46,o),
(515,7,cs),
(517,3,o),
(517,0,o),
(535,0,c),
(661,0,l),
(359,389,l),
(605,700,l),
(551,700,l),
(222,293,l),
(222,700,l),
(125,700,l),
(125,0,l)
);
},
{
pos = (222,0);
ref = SerifBottomRight;
},
{
angle = 180;
pos = (125,700);
ref = SerifBottomRight;
},
{
angle = 180;
pos = (222,700);
ref = SerifBottomLeft;
},
{
pos = (125,0);
ref = SerifBottomLeft;
}
);
width = 775;
}
);
metricLeft = H;
metricRight = O;
unicode = 75;
},
{
glyphname = L;
lastChange = "2022-11-26 00:59:48 +0000";
layers = (
{
layerId = m01;
shapes = (
{
closed = 1;
nodes = (
(612,0,l),
(612,76,o),
(617,86,o),
(622,191,c),
(595,191,l),
(595,111,o),
(552,42,o),
(462,42,cs),
(306,42,ls),
(235,42,o),
(222,63,o),
(222,121,c),
(222,700,l),
(125,700,l),
(125,0,l)
);
},
{
pos = (125,0);
ref = SerifBottomLeft;
},
{
angle = 180;
pos = (125,700);
ref = SerifBottomRight;
},
{
angle = 180;
pos = (222,700);
ref = SerifBottomLeft;
}
);
width = 642;
}
);
metricLeft = H;
metricRight = H;
unicode = 76;
},
{
glyphname = M;
lastChange = "2022-12-02 00:58:36 +0000";
layers = (
{
layerId = m01;
shapes = (
{
closed = 1;
nodes = (
(474,-2,l),
(709,583,l),
(709,0,l),
(805,0,l),
(805,700,l),
(698,700,l),
(474,115,l),
(234,700,l),
(125,700,l),
(125,0,l),
(167,0,l),
(167,603,l),
(421,-2,l)
);
},
{
pos = (125,0);
ref = SerifBottomLeft;
},
{
pos = (167,0);
ref = SerifBottomRight;
},
{
pos = (709,0);
ref = SerifBottomLeft;
},
{
angle = 180;
pos = (125,700);
ref = SerifBottomRight;
},
{
pos = (795,0);
ref = SerifBottomRight;
},
{
angle = 180;
pos = (795,700);
ref = SerifBottomLeft;
}
);
width = 911;
}
);
metricLeft = H;
metricRight = H;
unicode = 77;
},
{
glyphname = N;
lastChange = "2022-11-18 18:19:29 +0000";
layers = (
{
hints = (
{
name = _corner.rightSerif;
options = 1;
origin = (0,6);
scale = (0.68,1);
type = Corner;
}
);
layerId = m01;
shapes = (
{
closed = 1;
nodes = (
(611,0,l),
(653,0,l),
(653,700,l),
(611,700,l),
(611,157,l),
(216,700,l),
(101,700,l),
(125,666,l),
(125,0,l),
(167,0,l),
(167,610,l)
);
},
{
pos = (125,0);
ref = SerifBottomLeft;
},
{
pos = (167,0);
ref = SerifBottomRight;
},
{
angle = 180;
pos = (653,700);
ref = SerifBottomLeft;
},
{
angle = 180;
pos = (611,700);
ref = SerifBottomRight;
}
);
width = 769;
}
);
metricLeft = H;
metricRight = H;
unicode = 78;
},
{
glyphname = O;
lastChange = "2022-11-26 21:42:51 +0000";
layers = (
{
layerId = m01;
shapes = (
{
attr = {
fill = 1;
};
closed = 1;
nodes = (
(580,-16,o),
(733,153,o),
(733,356,cs),
(733,562,o),
(580,716,o),
(389,716,cs),
(198,716,o),
(45,548,o),
(45,356,cs),
(45,139,o),
(198,-16,o),
(389,-16,cs)
);
},
{
attr = {
fill = 1;
};
closed = 1;
nodes = (
(261,10,o),
(170,153,o),
(159,345,cs),
(147,525,o),
(224,667,o),
(362,679,cs),
(517,691,o),
(608,548,o),
(619,367,cs),
(631,189,o),
(554,34,o),
(416,23,cs)
);
}
);
width = 778;
}
);
unicode = 79;
},
{
glyphname = P;
lastChange = "2022-11-18 02:48:33 +0000";
layers = (
{
layerId = m01;
shapes = (
{
closed = 1;
nodes = (
(125,0,l),
(222,0,l),
(222,264,l),
(222,288,o),
(234,296,o),
(257,296,c),
(354,296,ls),
(545,296,o),
(596,398,o),
(596,495,cs),
(596,627,o),
(511,700,o),
(415,700,c),
(125,700,l)
);
},
{
closed = 1;
nodes = (
(234,338,o),
(225,348,o),
(225,361,c),
(225,631,l),
(225,653,o),
(231,658,o),
(257,658,c),
(366,658,l),
(464,658,o),
(511,591,o),
(511,520,cs),
(511,431,o),
(473,374,o),
(415,351,cs),
(395,343,o),
(375,338,o),
(349,338,c),
(313,338,o),
(286,338,o),
(257,338,c)
);
},
{
pos = (125,0);
ref = SerifBottomLeft;
},
{
pos = (222,0);
ref = SerifBottomRight;
},
{
angle = 180;
pos = (125,700);
ref = SerifBottomRight;
}
);
width = 641;
}
);
metricLeft = H;
metricRight = O;
unicode = 80;
},
{
glyphname = Q;
lastChange = "2022-12-01 23:56:56 +0000";
layers = (
{
layerId = m01;
shapes = (
{
closed = 1;
nodes = (
(242,22,o),
(165,161,o),
(154,345,cs),
(153,357,o),
(153,369,o),
(153,382,cs),
(153,542,o),
(230,680,o),
(363,680,cs),
(495,680,o),
(573,540,o),
(584,369,cs),
(585,355,o),
(586,341,o),
(586,327,cs),
(586,158,o),
(508,22,o),
(374,22,cs)
);
},
{
closed = 0;
nodes = (
(-35,499,l)
);
},
{
closed = 1;
nodes = (
(598,52,o),
(692,185,o),
(692,357,c),
(704,561,o),
(548,716,o),
(369,716,cs),
(188,716,o),
(46,548,o),
(46,357,c),
(33,153,o),
(157,9,o),
(324,-14,c),
(251,-45,o),
(231,-56,o),
(231,-72,cs),
(231,-82,o),
(237,-89,o),
(249,-89,cs),
(280,-89,o),
(288,-49,o),
(330,-49,cs),
(364,-49,o),
(399,-75,o),
(437,-99,cs),
(474,-124,o),
(548,-153,o),
(599,-153,cs),
(662,-153,o),
(714,-112,o),
(714,-48.5,cs),
(714,-44.167,o),
(714,-39.333,o),
(714,-34,c),
(697,-33,l),
(665,-83,o),
(628,-85,o),
(587,-85,cs),
(546,-85,o),
(497,-68,o),
(463,-46,cs),
(441,-33,o),
(430,-27,o),
(430,-22,cs),
(430,-16,o),
(439,-8,o),
(461,0,cs)
);
}
);
width = 759;
}
);
metricLeft = O;
metricRight = O;
unicode = 81;
},
{
glyphname = R;
lastChange = "2022-11-18 16:58:20 +0000";
layers = (
{
hints = (
{
name = _corner.rightSerif;
options = 1;
origin = (4,9);
scale = (0.8,1);
type = Corner;
}
);
layerId = m01;
shapes = (
{
closed = 1;
nodes = (
(222,373,o),
(222,373,o),
(222,399,c),
(222,591,l),
(222,660,o),
(235,664,o),
(304,664,cs),
(365,664,ls),
(448,664,o),
(510,614,o),
(510,543,cs),
(510,482,o),
(474,410,o),
(402,384,cs),
(365,373,o),
(328,373,o),
(328,373,c),
(256,373,ls)
);
},
{
pos = (125,0);
ref = SerifBottomLeft;
},
{
pos = (222,0);
ref = SerifBottomRight;
},
{
angle = 180;
pos = (125,700);
ref = SerifBottomRight;
},
{
closed = 1;
nodes = (
(354,331,o),
(410,221,o),
(452,166,c),
(536,56,o),
(536,46,o),
(555,7,cs),
(557,3,o),
(557,0,o),
(575,0,c),
(701,0,l),
(426,351,l),
(517,352,o),
(594,436,o),
(594,518,cs),
(594,649,o),
(490,700,o),
(412,700,cs),
(125,700,l),
(125,0,l),
(222,0,l),
(222,320,ls),
(222,328,o),
(227,331,o),
(239,331,cs),
(306,331,l)
);
}
);
width = 824;
}
);
metricLeft = H;
metricRight = O;
tags = (
"Clean up"
);
unicode = 82;
},
{
glyphname = S;
lastChange = "2022-12-02 02:55:38 +0000";
layers = (
{
layerId = m01;
shapes = (
{
closed = 1;
nodes = (
(191,22,o),
(72,107,o),
(72,212,c),
(45,212,l),
(45,170,o),
(45,41,o),
(45,0,c),
(72,0,l),
(72,32,o),
(82,56,o),
(98,56,cs),
(120,56,o),
(188,-16,o),
(343,-16,cs),
(424,-16,o),
(554,26,o),
(554,165,cs),
(554,266,o),
(495,289,o),
(412,349,cs),
(259,460,ls),
(202,502,o),
(176,545,o),
(176,575,cs),
(176,631,o),
(217,678,o),
(286,678,cs),
(398,678,o),
(468,601,o),
(468,501,c),
(495,501,l),
(495,543,o),
(495,678,o),
(495,718,c),
(468,718,l),
(468,689,o),
(445,685,o),
(432,685,cs),
(413,685,o),
(382,716,o),
(281,716,cs),
(148,716,o),
(69,609,o),
(69,543,cs),
(69,452,o),
(111,421,o),
(159,388,cs),
(333,267,ls),
(379,235,o),
(444,191,o),
(444,124,cs),
(444,57,o),
(394,22,o),
(319,22,cs)
);
}
);
width = 599;
}
);
metricLeft = O;
metricRight = O;
unicode = 83;
},
{
glyphname = T;
lastChange = "2022-11-18 16:58:43 +0000";
layers = (
{
layerId = m01;
shapes = (
{
closed = 1;
nodes = (
(516,700,l),
(356,700,l),
(259,700,l),
(99,700,l),
(99,658,l),
(234,658,ls),
(259,658,o),
(258,638,o),
(259,624,c),
(259,0,l),
(356,0,l),
(356,624,l),
(357,638,o),
(356,658,o),
(381,658,cs),
(516,658,l)
);
},
{
pos = (356,0);
ref = SerifBottomRight;
},
{
pos = (259,0);
ref = SerifBottomLeft;
},
{
pos = (516,700);
ref = SerifSpur;
scale = (-1,1);
},
{
pos = (99,700);
ref = SerifSpur;
}
);
width = 606;
}
);
metricLeft = H;
metricRight = H;
unicode = 84;
},
{
glyphname = U;
lastChange = "2022-11-18 17:06:44 +0000";
layers = (
{
layerId = m01;
shapes = (
{
closed = 1;
nodes = (
(664,-16,o),
(664,172,o),
(664,229,c),
(664,700,l),
(619,700,l),
(619,258,l),
(619,117,o),
(557,40,o),
(415,40,cs),
(292,40,o),
(219,100,o),
(219,253,c),
(219,700,l),
(125,700,l),
(124,678,o),
(125,309,o),
(125,223,c),
(125,109,o),
(170,-16,o),
(414,-16,cs)
);
},
{
angle = 180;
pos = (219,700);
ref = SerifBottomLeft;
},
{
angle = 180;
pos = (619,700);
ref = SerifBottomRight;
},
{
angle = 180;
pos = (125,700);
ref = SerifBottomRight;
},
{
angle = 180;
pos = (664,700);
ref = SerifBottomLeft;
}
);
width = 780;
}
);
metricLeft = H;
metricRight = H;
unicode = 85;
},
{
glyphname = V;
lastChange = "2022-11-18 02:43:02 +0000";
layers = (
{
hints = (
{
name = _corner.rightSerif;
options = 1;
origin = (0,0);
type = Corner;
},
{
name = _corner.leftSerif;
origin = (0,3);
type = Corner;
},
{
name = _corner.rightSerif;
options = 1;
origin = (1,0);
type = Corner;
},
{
name = _corner.leftSerif;
origin = (1,3);
type = Corner;
}
);
layerId = m01;
shapes = (
{
closed = 1;
nodes = (
(127,700,l),
(380,-15,l),
(443,83,l),
(240,700,l)
);
},
{
closed = 1;
nodes = (
(630,700,l),
(380,-15,l),
(424,-15,l),
(677,700,l)
);
}
);
width = 788;
}
);
metricLeft = H;
metricRight = H;
unicode = 86;
},
{
glyphname = W;
lastChange = "2022-11-18 17:10:48 +0000";
layers = (
{
hints = (
{
name = _corner.leftSerif;
origin = (0,8);
scale = (0.87,1);
type = Corner;
},
{
name = _corner.rightSerif;
options = 1;
origin = (0,5);
type = Corner;
},
{
name = _corner.leftSerif;
origin = (0,4);
scale = (0.85,1);
type = Corner;
},
{
name = _corner.rightSerif;
options = 1;
origin = (0,22);
scale = (0.87,1);
type = Corner;
}
);
layerId = m01;
shapes = (
{
closed = 1;
nodes = (
(428,0,l),
(540,307,l),
(643,0,l),
(708,0,l),
(957,700,l),
(912,700,l),
(704,105,l),
(589,454,l),
(677,700,l),
(645,700,l),
(601,700,ls),
(579,700,o),
(555,700,o),
(534,700,cs),
(497,700,l),
(408,700,ls),
(388,700,o),
(350,699,o),
(320,699,cs),
(284,699,o),
(241,700,o),
(216,700,cs),
(114,700,l),
(363,0,l)
);
},
{
closed = 1;
nodes = (
(236,678,o),
(256,675,o),
(320,675,cs),
(371,675,o),
(405,678,o),
(433,598,cs),
(515,362,l),
(424,105,l),
(263,597,ls)
);
},
{
closed = 1;
nodes = (
(522,662,o),
(531,673,o),
(568,673,cs),
(606,673,o),
(618,662,o),
(596,598,cs),
(568,518,l),
(543,597,ls)
);
}
);
width = 1054;
}
);
metricLeft = H;
metricRight = H;
unicode = 87;
},
{
glyphname = X;
lastChange = "2022-11-18 17:39:45 +0000";
layers = (
{
hints = (
{
name = _corner.leftSerif;
origin = (0,2);
type = Corner;
},
{
name = _corner.rightSerif;
options = 1;
origin = (0,3);
scale = (0.6,1);
type = Corner;
},
{
name = _corner.rightSerif;
options = 1;
origin = (0,0);
type = Corner;
},
{
name = _corner.leftSerif;
origin = (0,11);
scale = (0.8,1);
type = Corner;
},
{
name = _corner.rightSerif;
options = 1;
origin = (0,6);
type = Corner;
},
{
name = _corner.leftSerif;
origin = (0,5);
type = Corner;
},
{
name = _corner.leftSerif;
origin = (0,8);
type = Corner;
},
{
name = _corner.rightSerif;
options = 1;
origin = (0,9);
scale = (0.7,1);
type = Corner;
}
);
layerId = m01;
shapes = (
{
closed = 1;
nodes = (
(200,1,l),
(412,307,l),
(632,0,l),
(752,0,l),
(481,378,l),
(703,700,l),
(629,700,l),
(439,423,l),
(236,700,l),
(116,700,l),
(365,356,l),
(118,0,l)
);
}
);
width = 856;
}
);
metricLeft = O;
metricRight = O;
unicode = 88;
},
{
glyphname = Y;
lastChange = "2022-11-26 00:58:08 +0000";
layers = (
{
hints = (
{
name = _corner.leftSerif;
origin = (0,3);
scale = (0.73,1);
type = Corner;
},
{
name = _corner.rightSerif;
options = 1;
origin = (0,4);
type = Corner;
},
{
name = _corner.leftSerif;
origin = (0,6);
type = Corner;
},
{
name = _corner.rightSerif;
options = 1;
origin = (0,7);
scale = (0.72,1);
type = Corner;
}
);
layerId = m01;
shapes = (
{
closed = 1;
nodes = (
(335,0,l),
(432,0,l),
(432,272,l),
(641,700,l),
(594,700,l),
(405,328,l),
(213,700,l),
(116,700,l),
(335,272,l)
);
},
{
pos = (432,0);
ref = SerifBottomRight;
},
{
pos = (335,0);
ref = SerifBottomLeft;
}
);
width = 752;
}
);
metricLeft = O;
metricRight = O;
unicode = 89;
},
{
glyphname = Z;
lastChange = "2022-11-18 18:19:47 +0000";
layers = (
{
layerId = m01;
shapes = (
{
closed = 1;
nodes = (
(50,658,l),
(414,658,l),
(37,47,l),
(37,0,l),
(518,0,l),
(518,42,l),
(148,42,l),
(528,658,l),
(528,700,l),
(50,700,l)
);
},
{
angle = 180;
pos = (142,700);
ref = SerifUpRight;
},
{
pos = (447,0);
ref = SerifUpRight;
}
);
width = 580;
}
);
metricLeft = H;
metricRight = H;
unicode = 90;
},
{
glyphname = a;
lastChange = "2022-12-03 07:54:09 +0000";
layers = (
{
layerId = m01;
shapes = (
{
closed = 1;
nodes = (
(256,-16,o),
(317,76,o),
(317,76,c),
(317,48,o),
(334,-16,o),
(385,-16,cs),
(434,-16,o),
(460,13,o),
(480,30,c),
(460,47,l),
(446,32,o),
(436,29,o),
(423,29,cs),
(404,29,o),
(393,71,o),
(393,121,cs),
(393,325,ls),
(393,414,o),
(319,451,o),
(239,451,cs),
(169,451,o),
(94,419,o),
(72,374,cs),
(70,370,o),
(70,364,o),
(70,359,cs),
(70,340,o),
(87,319,o),
(110,319,cs),
(127,319,o),
(141,333,o),
(149,352,cs),
(161,376,o),
(171,411,o),
(231,411,cs),
(289,411,o),
(307,383,o),
(307,340,cs),
(307,302,ls),
(307,265,o),
(37,267,o),
(37,103,cs),
(37,20,o),
(94,-16,o),
(166,-16,cs)
);
},
{
closed = 1;
nodes = (
(160,33,o),
(131,60,o),
(131,105,cs),
(131,223,o),
(307,267,o),
(307,235,cs),
(307,111,ls),
(307,95,o),
(253,33,o),
(193,33,cs)
);
}
);
width = 497;
}
);
metricLeft = o;
metricRight = n;
unicode = 97;
},
{
glyphname = b;
lastChange = "2022-12-02 21:44:30 +0000";
layers = (
{
layerId = m01;
shapes = (
{
closed = 1;
nodes = (
(143,741,o),
(135,741,o),
(129,741,c),
(66,728,o),
(73,728,o),
(5,728,c),
(5,701,l),
(61,701,o),
(58,692,o),
(58,657,cs),
(58,-16,l),
(80,-16,l),
(110,48,ls),
(111,50,o),
(115,51,o),
(117,48,cs),
(129,28,o),
(165,-16,o),
(231,-16,cs),
(379,-16,o),
(446,85,o),
(446,201,cs),
(446,323,o),
(363,452,o),
(231,452,cs),
(198,452,o),
(171,444,o),
(143,430,c),
(143,735,ls)
);
},
{
closed = 1;
nodes = (
(191,19,o),
(156,37,o),
(143,73,c),
(143,358,ls),
(143,404,o),
(186,417,o),
(234,417,cs),
(341,417,o),
(351,312,o),
(351,226,cs),
(351,152,o),
(329,19,o),
(231,19,cs)
);
}
);
width = 493;
}
);
metricLeft = n;
metricRight = o;
unicode = 98;
},
{
glyphname = c;
lastChange = "2022-12-02 21:44:31 +0000";
layers = (
{
layerId = m01;
shapes = (
{
closed = 1;
nodes = (
(343,-16,o),
(384,11,o),
(413,45,c),
(391,62,l),
(370,43,o),
(348,21,o),
(276,21,cs),
(172,21,o),
(134,98,o),
(134,204,cs),
(134,306,o),
(155,417,o),
(254,417,cs),
(289,417,o),
(322,414,o),
(326,374,c),
(326,348,o),
(345,325,o),
(367,325,cs),
(390,325,o),
(408,348,o),
(408,374,cs),
(408,421,o),
(322,451,o),
(267,451,cs),
(128,451,o),
(37,374,o),
(37,204,cs),
(37,72,o),
(132,-16,o),
(267,-16,cs)
);
}
);
width = 460;
}
);
metricLeft = o;
metricRight = o;
unicode = 99;
},
{
glyphname = d;
lastChange = "2022-12-02 21:44:33 +0000";
layers = (
{
layerId = m01;
shapes = (
{
closed = 1;
nodes = (
(497,25,l),
(441,25,o),
(426,65,o),
(426,145,cs),
(426,737,ls),
(426,743,o),
(417,743,o),
(411,743,c),
(350,730,o),
(353,730,o),
(285,730,c),
(285,703,l),
(341,703,o),
(340,695,o),
(340,659,cs),
(340,430,l),
(312,444,o),
(285,452,o),
(252,452,cs),
(120,452,o),
(37,323,o),
(37,201,cs),
(37,85,o),
(114,-16,o),
(252,-16,cs),
(297,-16,o),
(335,4,o),
(348,21,c),
(348,5,ls),
(348,1,o),
(350,0,o),
(355,0,cs),
(414,0,o),
(463,-2,o),
(497,-2,c)
);
},
{
closed = 1;
nodes = (
(154,19,o),
(132,152,o),
(132,226,cs),
(132,312,o),
(142,417,o),
(249,417,cs),
(297,417,o),
(340,404,o),
(340,358,cs),
(340,73,l),
(327,37,o),
(292,19,o),
(252,19,cs)
);
}
);
width = 514;
}
);
metricLeft = o;
metricRight = n;
unicode = 100;
},
{
glyphname = e;
lastChange = "2022-12-02 21:43:40 +0000";
layers = (
{
layerId = m01;
shapes = (
{
closed = 1;
nodes = (
(139,275,o),
(139,282,cs),
(139,328,o),
(175,417,o),
(240,417,cs),
(313,417,o),
(334,338,o),
(334,274,cs),
(334,271,o),
(332,267,o),
(329,267,cs),
(264,267,o),
(214,267,o),
(149,267,cs),
(141,267,o)
);
},
{
closed = 1;
nodes = (
(343,-16,o),
(388,19,o),
(420,50,c),
(399,66,l),
(375,49,o),
(346,21,o),
(274,21,cs),
(120,21,o),
(132,171,o),
(132,219,cs),
(132,230,o),
(140,233,o),
(144,233,cs),
(238,233,o),
(320,233,o),
(414,233,cs),
(419,233,o),
(422,237,o),
(422,242,cs),
(422,315,o),
(388,451,o),
(248,451,cs),
(128,451,o),
(37,335,o),
(37,212,cs),
(37,86,o),
(122,-16,o),
(258,-16,cs)
);
}
);
width = 469;
}
);
metricLeft = o;
metricRight = o;
unicode = 101;
},
{
glyphname = f;
lastChange = "2022-12-02 21:44:38 +0000";
layers = (
{
layerId = m01;
shapes = (
{
closed = 1;
nodes = (
(177,0,l),
(177,430,l),
(177,625,o),
(184,690,o),
(253,690,cs),
(305,690,o),
(315,614,o),
(354,614,cs),
(372,614,o),
(394,628,o),
(394,658,cs),
(394,704,o),
(295,724,o),
(247,724,cs),
(88,724,o),
(91,598,o),
(91,436,c),
(91,0,l)
);
},
{
pos = (91,0);
ref = LowerSerifBottomLeft;
},
{
pos = (177,0);
ref = LowerSerifBottomRight;
},
{
closed = 1;
nodes = (
(269,435,l),
(269,475,l),
(5,475,l),
(5,435,l)
);
}
);
width = 353;
}
);
metricLeft = n;
metricRight = "=n*-2.4";
unicode = 102;
},
{
glyphname = g;
lastChange = "2022-12-02 21:44:39 +0000";
layers = (
{
layerId = m01;
shapes = (
{
closed = 1;
nodes = (
(330,-216,o),
(435,-173,o),
(435,-80,cs),
(435,2,o),
(361,35,o),
(283,47,cs),
(175,63,ls),
(135,69,o),
(127,74,o),
(127,86,cs),
(127,102,o),
(149,112,o),
(220,112,cs),
(307,112,o),
(382,189,o),
(382,283,cs),
(382,327,o),
(362,366,o),
(338,393,c),
(351,398,o),
(360,400,o),
(367,400,cs),
(395,400,o),
(386,368,o),
(414,368,cs),
(433,368,o),
(447,389,o),
(447,409,cs),
(447,422,o),
(441,434,o),
(431,442,cs),
(428,444,o),
(424,446,o),
(418,448,cs),
(409,451,o),
(401,453,o),
(392,453,cs),
(365,453,o),
(341,437,o),
(311,418,c),
(285,436,o),
(254,447,o),
(220,447,cs),
(133,447,o),
(58,371,o),
(58,283,cs),
(58,220,o),
(84,170,o),
(138,138,c),
(98,138,o),
(58,106,o),
(58,61,cs),
(58,29,o),
(74,-3,o),
(140,-13,cs),
(251,-29,ls),
(299,-36,o),
(342,-43,o),
(342,-100,cs),
(342,-163,o),
(290,-180,o),
(221,-180,cs),
(147,-180,o),
(111,-150,o),
(111,-100,cs),
(111,-54,o),
(135,-44,o),
(150,-41,c),
(133,-24,o),
(115,-23,o),
(102,-23,cs),
(65,-23,o),
(18,-43,o),
(18,-101,cs),
(18,-173,o),
(98,-216,o),
(230,-216,cs)
);
},
{
closed = 1;
nodes = (
(152,146,o),
(150,236,o),
(150,286,cs),
(150,325,o),
(156,413,o),
(214,413,cs),
(274,413,o),
(290,334,o),
(290,264,cs),
(290,203,o),
(270,146,o),
(226,146,cs)
);
}
);
width = 464;
}
);
metricLeft = "=o*.5";
metricRight = n;
unicode = 103;
},
{
glyphname = h;
lastChange = "2022-12-02 21:44:42 +0000";
layers = (
{
layerId = m01;
shapes = (
{
pos = (81,0);
ref = LowerSerifBottomLeft;
},
{
pos = (167,0);
ref = LowerSerifBottomRight;
},
{
pos = (354,0);
ref = LowerSerifBottomLeft;
},
{
pos = (440,0);
ref = LowerSerifBottomRight;
},
{
closed = 1;
nodes = (
(163,741,o),
(159,741,o),
(153,741,c),
(92,728,o),
(97,728,o),
(25,728,c),
(25,701,l),
(81,701,o),
(81,693,o),
(81,657,cs),
(81,0,l),
(167,0,l),
(167,337,l),
(193,364,o),
(224,394,o),
(274,394,cs),
(328,394,o),
(354,360,o),
(354,317,cs),
(354,0,l),
(440,0,l),
(440,324,ls),
(440,413,o),
(375,449,o),
(299,449,cs),
(232,449,o),
(185,419,o),
(163,381,c),
(163,735,ls)
);
}
);
width = 533;
}
);
metricLeft = n;
metricRight = n;
unicode = 104;
},
{
glyphname = i;
lastChange = "2022-12-02 21:43:44 +0000";
layers = (
{
layerId = m01;
shapes = (
{
closed = 1;
nodes = (
(167,0,l),
(167,455,ls),
(167,461,o),
(159,461,o),
(153,461,c),
(92,448,o),
(97,448,o),
(29,448,c),
(29,421,l),
(85,421,o),
(81,413,o),
(81,377,cs),
(81,0,l)
);
},
{
pos = (81,0);
ref = LowerSerifBottomLeft;
},
{
pos = (167,0);
ref = LowerSerifBottomRight;
},
{
pos = (21,641);
ref = period;
}
);
width = 260;
}
);
metricLeft = n;
metricRight = n;
unicode = 105;
},
{
glyphname = j;
lastChange = "2022-12-02 21:45:29 +0000";
layers = (
{
layerId = m01;
shapes = (
{
closed = 1;
nodes = (
(136,-141,o),
(125,-168,o),
(71,-168,cs),
(40,-168,o),
(19,-147,o),
(15,-121,cs),
(12,-96,o),
(-1,-76,o),
(-27,-80,cs),
(-47,-83,o),
(-62,-100,o),
(-60,-122,cs),
(-54,-170,o),
(13,-209,o),
(77,-209,cs),
(159,-209,o),
(222,-173,o),
(222,-84,cs),
(222,455,ls),
(222,461,o),
(210,461,o),
(204,461,c),
(143,448,o),
(148,448,o),
(80,448,c),
(80,421,l),
(136,421,o),
(136,413,o),
(136,377,cs),
(136,-98,ls)
);
},
{
pos = (76,641);
ref = period;
}
);
width = 255;
}
);
metricLeft = "=n*-12";
metricRight = n;
unicode = 106;
},
{
glyphname = k;
lastChange = "2022-12-02 21:44:49 +0000";
layers = (
{
hints = (
{
name = _corner.rightSerif;
options = 1;
origin = (0,0);
scale = (0.7,1);
type = Corner;
},
{
name = _corner.leftSerif;
origin = (0,2);
scale = (0.74,1);
type = Corner;
},
{
name = _corner.rightSerif;
options = 1;
origin = (0,3);
scale = (0.74,1);
type = Corner;
}
);
layerId = m01;
shapes = (
{
closed = 1;
nodes = (
(472,0,l),
(260,265,l),
(419,435,l),
(361,435,l),
(166,220,l),
(166,151,l),
(219,216,l),
(253,167,ls),
(330,55,o),
(335,50,o),
(352,0,c)
);
},
{
pos = (81,0);
ref = LowerSerifBottomLeft;
},
{
pos = (166,0);
ref = LowerSerifBottomRight;
},
{
closed = 1;
nodes = (
(167,0,l),
(167,739,ls),
(167,745,o),
(163,745,o),
(157,745,c),
(96,732,o),
(93,732,o),
(25,732,c),
(25,705,l),
(81,705,o),
(81,697,o),
(81,661,cs),
(81,0,l)
);
}
);
width = 588;
}
);
metricLeft = n;
metricRight = o;
unicode = 107;
},
{
glyphname = l;
lastChange = "2022-12-02 21:46:42 +0000";
layers = (
{
layerId = m01;
shapes = (
{
closed = 1;
nodes = (
(81,0,l),
(167,0,l),
(167,739,l),
(167,745,o),
(155,745,o),
(149,745,c),
(88,732,o),
(93,732,o),
(25,732,c),
(25,705,l),
(81,705,o),
(81,697,o),
(81,661,cs)
);
},
{
pos = (81,0);
ref = LowerSerifBottomLeft;
},
{
pos = (167,0);
ref = LowerSerifBottomRight;
}
);
width = 260;
}
);
metricLeft = n;
metricRight = n;
unicode = 108;
},
{
glyphname = m;
lastChange = "2022-12-02 21:46:39 +0000";
layers = (
{
layerId = m01;
shapes = (
{
closed = 1;
nodes = (
(468,365,o),
(500,403,o),
(551,403,cs),
(602,403,o),
(631,382,o),
(631,339,cs),
(631,1,l),
(717,1,l),
(717,325,ls),
(717,413,o),
(653,450,o),
(575,450,cs),
(496,450,o),
(459,404,o),
(437,368,c),
(425,416,o),
(367,449,o),
(300,449,cs),
(240,449,o),
(202,424,o),
(163,381,c),
(163,445,ls),
(163,451,o),
(159,451,o),
(153,451,c),
(92,438,o),
(97,438,o),
(29,438,c),
(29,411,l),
(85,411,o),
(81,403,o),
(81,367,cs),
(81,0,l),
(167,0,l),
(167,337,l),
(193,364,o),
(225,402,o),
(276,402,cs),
(327,402,o),
(356,381,o),
(356,338,cs),
(356,0,l),
(442,0,l),
(442,338,l)
);
},
{
pos = (81,0);
ref = LowerSerifBottomLeft;
},
{
pos = (167,0);
ref = LowerSerifBottomRight;
},
{
pos = (356,0);
ref = LowerSerifBottomLeft;
},
{
pos = (442,0);
ref = LowerSerifBottomRight;
},
{
pos = (631,1);
ref = LowerSerifBottomLeft;
},
{
pos = (717,1);
ref = LowerSerifBottomRight;
}
);
width = 810;
}
);
metricLeft = n;
metricRight = n;
unicode = 109;
},
{
glyphname = n;
lastChange = "2022-12-02 21:42:29 +0000";
layers = (
{
layerId = m01;
shapes = (
{
closed = 1;
nodes = (
(440,0,l),
(440,324,ls),
(440,413,o),
(375,449,o),
(299,449,cs),
(232,449,o),
(185,419,o),
(163,381,c),
(163,445,ls),
(163,451,o),
(159,451,o),
(153,451,c),
(92,438,o),
(97,438,o),
(29,438,c),
(29,411,l),
(85,411,o),
(81,403,o),
(81,367,cs),
(81,0,l),
(167,0,l),
(167,337,l),
(193,364,o),
(224,394,o),
(274,394,cs),
(328,394,o),
(354,360,o),
(354,317,cs),
(354,0,l)
);
},
{
pos = (81,0);
ref = LowerSerifBottomLeft;
},
{
pos = (167,0);
ref = LowerSerifBottomRight;
},
{
pos = (354,0);
ref = LowerSerifBottomLeft;
},
{
pos = (440,0);
ref = LowerSerifBottomRight;
}
);
width = 533;
}
);
unicode = 110;
},
{
glyphname = o;
lastChange = "2022-12-02 21:42:20 +0000";
layers = (
{
layerId = m01;
shapes = (
{
attr = {
fill = "1";
};
closed = 1;
nodes = (
(361,-16,o),
(455,91,o),
(455,222,cs),
(455,355,o),
(361,453,o),
(246,453,cs),
(131,453,o),
(37,345,o),
(37,222,cs),
(37,82,o),
(131,-16,o),
(246,-16,cs)
);
},
{
attr = {
fill = "1";
};
closed = 1;
nodes = (
(146,20,o),
(136,148,o),
(136,247,cs),
(136,350,o),
(156,417,o),
(239,417,cs),
(346,417,o),
(356,294,o),
(356,195,cs),
(356,110,o),
(347,20,o),
(254,20,cs)
);
}
);
width = 502;
}
);
unicode = 111;
},
{
glyphname = p;
lastChange = "2022-12-02 21:46:34 +0000";
layers = (
{
hints = (
{
horizontal = 1;
origin = (0,17);
target = down;
type = TopGhost;
}
);
layerId = m01;
shapes = (
{
closed = 1;
nodes = (
(167,-216,l),
(167,5,l),
(195,-9,o),
(219,-17,o),
(252,-17,cs),
(384,-17,o),
(467,72,o),
(467,212,cs),
(467,348,o),
(391,451,o),
(252,451,cs),
(207,451,o),
(173,425,o),
(163,415,c),
(163,455,ls),
(163,461,o),
(158,461,o),
(152,461,c),
(91,448,o),
(91,448,o),
(23,448,c),
(23,421,l),
(79,421,o),
(81,413,o),
(81,377,cs),
(81,-216,l)
);
},
{
pos = (81,-216);
ref = LowerSerifBottomLeft;
},
{
pos = (167,-216);
ref = LowerSerifBottomRight;
},
{
closed = 1;
nodes = (
(207,17,o),
(164,31,o),
(164,77,cs),
(164,362,l),
(177,398,o),
(212,416,o),
(252,416,cs),
(344,416,o),
(372,299,o),
(372,209,cs),
(372,122,o),
(363,17,o),
(255,17,cs)
);
}
);
width = 514;
}
);
metricLeft = n;
metricRight = o;
unicode = 112;
},
{
glyphname = q;
lastChange = "2022-12-02 21:46:32 +0000";
layers = (
{
layerId = m01;
shapes = (
{
pos = (337,-216);
ref = LowerSerifBottomLeft;
},
{
pos = (423,-216);
ref = LowerSerifBottomRight;
},
{
closed = 1;
nodes = (
(142,18,o),
(132,123,o),
(132,209,cs),
(132,299,o),
(160,416,o),
(252,416,cs),
(292,416,o),
(327,398,o),
(340,362,c),
(340,86,ls),
(340,40,o),
(297,18,o),
(249,18,cs)
);
},
{
closed = 1;
nodes = (
(344,408,o),
(311,451,o),
(224,451,cs),
(113,451,o),
(37,348,o),
(37,212,cs),
(37,72,o),
(137,-17,o),
(224,-17,cs),
(270,-17,o),
(318,-6,o),
(337,14,c),
(337,-216,l),
(423,-216,l),
(423,451,l),
(401,451,l),
(365,387,ls),
(364,385,o),
(360,384,o),
(358,387,cs)
);
}
);
width = 516;
}
);
metricLeft = o;
metricRight = n;
unicode = 113;
},
{
glyphname = r;
lastChange = "2022-12-02 21:43:35 +0000";
layers = (
{
layerId = m01;
shapes = (
{
pos = (81,0);
ref = LowerSerifBottomLeft;
},
{
pos = (159,0);
ref = LowerSerifBottomRight;
},
{
closed = 1;
nodes = (
(159,261,o),
(201,392,o),
(280,392,cs),
(321,392,o),
(327,374,o),
(345,374,cs),
(370,374,o),
(393,386,o),
(394,412,cs),
(395,433,o),
(380,452,o),
(358,453,cs),
(245,456,o),
(172,367,o),
(172,367,c),
(159,445,ls),
(158,451,o),
(155,451,o),
(149,451,c),
(88,438,o),
(93,438,o),
(25,438,c),
(25,411,l),
(81,411,o),
(81,403,o),
(81,367,cs),
(81,0,l),
(159,0,l),
(159,150,ls)
);
}
);
width = 441;
}
);
metricLeft = n;
metricRight = o;
unicode = 114;
},
{
glyphname = s;
lastChange = "2022-12-02 21:46:26 +0000";
layers = (
{
background = {
shapes = (
{
closed = 0;
nodes = (
(97,54,l),
(97,16,l)
);
},
{
closed = 1;
nodes = (
(89,21,o),
(58,41,o),
(56,1,c),
(37,1,l),
(46,4,o),
(40,142,o),
(30,141,c),
(50,141,l),
(57,104,o),
(69,91,o),
(75,83,cs),
(97,54,l),
(97,16,l)
);
}
);
};
layerId = m01;
shapes = (
{
closed = 1;
nodes = (
(116,18,o),
(64,87,o),
(64,135,c),
(37,135,l),
(37,108,o),
(37,26,o),
(37,0,c),
(64,0,l),
(64,20,o),
(64,26,o),
(74,26,cs),
(88,26,o),
(112,-16,o),
(211,-16,cs),
(260,-16,o),
(350,11,o),
(350,105,cs),
(350,162,o),
(315,194,o),
(261,231,cs),
(164,297,ls),
(126,323,o),
(114,341,o),
(114,360,cs),
(114,396,o),
(143,417,o),
(181,417,cs),
(257,417,o),
(287,377,o),
(287,313,c),
(314,313,l),
(314,340,o),
(314,426,o),
(314,451,c),
(287,451,l),
(287,433,o),
(282,430,o),
(274,430,cs),
(262,430,o),
(242,450,o),
(178,450,cs),
(93,450,o),
(43,382,o),
(43,324,cs),
(43,268,o),
(70,251,o),
(100,231,cs),
(211,156,ls),
(240,137,o),
(278,112,o),
(278,73,cs),
(278,34,o),
(229,18,o),
(196,18,cs)
);
}
);
width = 397;
}
);
metricLeft = o;
metricRight = o;
unicode = 115;
},
{
glyphname = t;
lastChange = "2022-12-02 21:46:24 +0000";
layers = (
{
hints = (
{
place = (381, 30);
place = (381, 30);
type = Stem;
}
);
layerId = m01;
shapes = (
{
closed = 1;
nodes = (
(65,36,o),
(75,-18,o),
(180,-18,cs),
(243,-18,o),
(282,17,o),
(289,25,c),
(275,52,l),
(267,46,o),
(239,22,o),
(206,22,cs),
(161,22,o),
(151,46,o),
(151,130,cs),
(151,435,l),
(252,435,l),
(252,475,l),
(146,475,l),
(146,592,l),
(116,592,l),
(98,524,o),
(66,475,o),
(5,475,c),
(5,435,l),
(65,435,l),
(65,124,ls)
);
}
);
width = 306;
}
);
metricLeft = n;
metricRight = n;
unicode = 116;
},
{
glyphname = u;
lastChange = "2022-12-02 21:46:21 +0000";
layers = (
{
layerId = m01;
shapes = (
{
closed = 1;
nodes = (
(428,448,o),
(420,448,o),
(414,448,c),
(353,435,o),
(358,435,o),
(290,435,c),
(290,408,l),
(346,408,o),
(342,400,o),
(342,364,cs),
(342,98,l),
(322,73,o),
(287,33,o),
(230,33,cs),
(169,33,o),
(143,54,o),
(143,97,cs),
(143,442,ls),
(143,448,o),
(135,448,o),
(129,448,c),
(68,435,o),
(73,435,o),
(5,435,c),
(5,408,l),
(61,408,o),
(57,400,o),
(57,350,cs),
(57,120,ls),
(57,0,o),
(151,-14,o),
(204,-14,cs),
(285,-14,o),
(320,24,o),
(346,54,c),
(346,0,l),
(428,0,l),
(428,442,l)
);
},
{
pos = (428,0);
ref = LowerSerifBottomRight;
}
);
width = 521;
}
);
metricLeft = n;
metricRight = n;
unicode = 117;
},
{
glyphname = v;
lastChange = "2022-12-02 21:46:19 +0000";
layers = (
{
hints = (
{
name = _corner.rightSerif;
options = 1;
origin = (0,5);
scale = (0.73,1);
type = Corner;
},
{
name = _corner.leftSerif;
origin = (0,4);
scale = (0.73,1);
type = Corner;
},
{
name = _corner.rightSerif;
options = 1;
origin = (0,2);
scale = (0.73,1);
type = Corner;
},
{
name = _corner.leftSerif;
origin = (0,1);
scale = (0.73,1);
type = Corner;
}
);
layerId = m01;
shapes = (
{
closed = 1;
nodes = (
(282,-6,l),
(441,435,l),
(397,435,l),
(282,110,l),
(172,435,l),
(77,435,l),
(237,-6,l)
);
}
);
width = 524;
}
);
metricLeft = n;
metricRight = n;
unicode = 118;
},
{
glyphname = w;
lastChange = "2022-12-02 21:46:17 +0000";
layers = (
{
hints = (
{
name = _corner.rightSerif;
options = 1;
origin = (0,12);
scale = (0.73,1);
type = Corner;
},
{
name = _corner.leftSerif;
origin = (0,7);
scale = (0.73,1);
type = Corner;
},
{
name = _corner.leftSerif;
origin = (0,4);
scale = (0.73,1);
type = Corner;
},
{
name = _corner.rightSerif;
options = 1;
origin = (0,5);
scale = (0.73,1);
type = Corner;
}
);
layerId = m01;
shapes = (
{
closed = 1;
nodes = (
(324,-5,l),
(396,188,l),
(468,-5,l),
(555,-5,l),
(714,435,l),
(670,435,l),
(533,60,l),
(403,435,l),
(317,435,ls),
(299,435,o),
(181,435,o),
(163,435,cs),
(77,435,l),
(237,-5,l)
);
},
{
closed = 1;
nodes = (
(182,401,o),
(192,410,o),
(237,410,cs),
(284,410,o),
(320,401,o),
(348,322,cs),
(374,250,l),
(302,60,l),
(210,321,ls)
);
}
);
width = 797;
}
);
metricLeft = n;
metricRight = n;
unicode = 119;
},
{
glyphname = x;
lastChange = "2022-12-02 21:46:14 +0000";
layers = (
{
hints = (
{
name = _corner.rightSerif;
options = 1;
origin = (2,3);
type = Corner;
},
{
name = _corner.rightSerif;
options = 1;
origin = (1,0);
scale = (0.5,1);
type = Corner;
},
{
name = _corner.rightSerif;
options = 1;
origin = (0,1);
type = Corner;
},
{
name = _corner.rightSerif;
options = 1;
origin = (1,2);
scale = (0.5,1);
type = Corner;
},
{
name = _corner.leftSerif;
origin = (0,0);
scale = (0.5,1);
type = Corner;
},
{
name = _corner.leftSerif;
origin = (2,2);
scale = (0.5,1);
type = Corner;
},
{
name = _corner.leftSerif;
origin = (1,3);
type = Corner;
},
{
name = _corner.leftSerif;
origin = (1,1);
type = Corner;
}
);
layerId = m01;
shapes = (
{
closed = 1;
nodes = (
(488,435,l),
(435,435,l),
(270,252,l),
(299,225,l)
);
},
{
closed = 1;
nodes = (
(505,0,l),
(179,435,l),
(73,435,l),
(397,0,l)
);
},
{
closed = 1;
nodes = (
(296,218,l),
(267,245,l),
(50,0,l),
(103,0,l)
);
}
);
width = 571;
}
);
metricLeft = n;
metricRight = n;
unicode = 120;
},
{
glyphname = y;
lastChange = "2022-12-02 21:46:12 +0000";
layers = (
{
hints = (
{
name = _corner.rightSerif;
options = 1;
origin = (0,7);
scale = (0.73,1);
type = Corner;
},
{
name = _corner.leftSerif;
origin = (0,6);
scale = (0.73,1);
type = Corner;
},
{
name = _corner.rightSerif;
options = 1;
origin = (0,4);
scale = (0.73,1);
type = Corner;
},
{
name = _corner.leftSerif;
origin = (0,3);
scale = (0.73,1);
type = Corner;
}
);
layerId = m01;
shapes = (
{
closed = 1;
nodes = (
(198,-202,o),
(235,-149,o),
(282,-16,cs),
(441,435,l),
(397,435,l),
(282,110,l),
(172,435,l),
(77,435,l),
(232,0,l),
(200,-88,o),
(183,-134,o),
(142,-129,cs),
(112,-126,o),
(98,-143,o),
(96,-160,cs),
(94,-183,o),
(109,-199,o),
(130,-202,c)
);
}
);
width = 524;
}
);
metricLeft = n;
metricRight = n;
unicode = 121;
},
{
glyphname = z;
lastChange = "2022-12-02 21:46:08 +0000";
layers = (
{
layerId = m01;
shapes = (
{
closed = 1;
nodes = (
(388,0,l),
(388,33,ls),
(388,54,o),
(390,93,o),
(390,120,c),
(365,120,l),
(365,69,o),
(357,40,o),
(273,40,cs),
(108,40,l),
(376,396,l),
(376,435,l),
(29,435,l),
(29,402,ls),
(29,382,o),
(28,342,o),
(28,315,c),
(53,315,l),
(53,365,o),
(61,395,o),
(145,395,cs),
(273,395,l),
(5,39,l),
(5,0,l)
);
}
);
width = 407;
}
);
metricLeft = n;
metricRight = n;
unicode = 122;
},
{
glyphname = a_e;
lastChange = "2022-12-02 21:46:06 +0000";
layers = (
{
layerId = m01;
shapes = (
{
closed = 1;
nodes = (
(256,-16,o),
(346,57,o),
(346,57,c),
(375,29,o),
(414,2,o),
(456,-6,cs),
(478,-12,o),
(501,-16,o),
(527,-16,cs),
(612,-16,o),
(657,19,o),
(689,50,c),
(668,66,l),
(644,49,o),
(615,21,o),
(543,21,cs),
(389,21,o),
(401,171,o),
(401,219,cs),
(401,230,o),
(409,233,o),
(413,233,cs),
(683,233,ls),
(688,233,o),
(691,237,o),
(691,242,cs),
(691,315,o),
(657,451,o),
(517,451,cs),
(462,451,o),
(413,427,o),
(377,388,c),
(351,432,o),
(296,451,o),
(239,451,cs),
(169,451,o),
(94,419,o),
(72,374,cs),
(70,370,o),
(70,364,o),
(70,359,cs),
(70,340,o),
(87,319,o),
(110,319,cs),
(127,319,o),
(141,333,o),
(149,352,cs),
(161,376,o),
(171,411,o),
(231,411,cs),
(289,411,o),
(307,383,o),
(307,340,cs),
(307,302,ls),
(307,265,o),
(37,267,o),
(37,103,cs),
(37,20,o),
(94,-16,o),
(166,-16,cs)
);
},
{
closed = 1;
nodes = (
(131,223,o),
(307,267,o),
(307,235,cs),
(307,111,ls),
(307,95,o),
(253,33,o),
(193,33,cs),
(160,33,o),
(131,60,o),
(131,105,cs)
);
},
{
closed = 1;
nodes = (
(408,328,o),
(444,417,o),
(509,417,cs),
(582,417,o),
(603,338,o),
(603,274,cs),
(603,271,o),
(601,267,o),
(598,267,cs),
(418,267,ls),
(410,267,o),
(408,275,o),
(408,282,cs)
);
}
);
width = 738;
}
);
metricLeft = a;
metricRight = e;
},
{
glyphname = f_f;
lastChange = "2022-12-02 21:46:04 +0000";
layers = (
{
layerId = m01;
shapes = (
{
closed = 1;
nodes = (
(177,0,l),
(177,430,l),
(177,435,l),
(374,435,l),
(374,0,l),
(460,0,l),
(460,430,l),
(460,435,l),
(552,435,l),
(552,475,l),
(460,475,l),
(462,637,o),
(473,690,o),
(536,690,cs),
(588,690,o),
(598,614,o),
(637,614,cs),
(655,614,o),
(677,628,o),
(677,658,cs),
(677,704,o),
(578,724,o),
(530,724,cs),
(464,724,o),
(426,700,o),
(404,661,c),
(378,691,o),
(306,704,o),
(267,704,cs),
(121,704,o),
(95,617,o),
(91,475,c),
(5,475,l),
(5,435,l),
(91,435,l),
(91,0,l)
);
},
{
closed = 1;
nodes = (
(182,634,o),
(210,670,o),
(273,670,cs),
(315,670,o),
(362,621,o),
(384,602,c),
(376,561,o),
(374,526,o),
(374,475,c),
(178,475,l)
);
},
{
pos = (91,0);
ref = LowerSerifBottomLeft;
},
{
pos = (177,0);
ref = LowerSerifBottomRight;
},
{
pos = (374,0);
ref = LowerSerifBottomLeft;
},
{
pos = (460,0);
ref = LowerSerifBottomRight;
}
);
width = 636;
}
);
metricLeft = f;
metricRight = f;
},
{
glyphname = f_f_i;
lastChange = "2022-12-02 21:46:01 +0000";
layers = (
{
layerId = m01;
shapes = (
{
closed = 1;
nodes = (
(460,0,l),
(460,422,l),
(616,422,ls),
(671,422,o),
(667,413,o),
(667,377,cs),
(667,0,l),
(753,0,l),
(753,469,ls),
(753,475,o),
(745,475,o),
(739,475,c),
(679,462,o),
(683,462,o),
(617,462,cs),
(460,462,l),
(462,624,o),
(473,690,o),
(536,690,cs),
(608,690,o),
(638,614,o),
(677,614,cs),
(695,614,o),
(717,628,o),
(717,658,cs),
(717,704,o),
(618,724,o),
(530,724,cs),
(473,724,o),
(430,707,o),
(404,661,c),
(378,691,o),
(306,704,o),
(267,704,cs),
(121,704,o),
(95,604,o),
(91,462,c),
(5,462,l),
(5,422,l),
(91,422,l),
(91,0,l),
(177,0,l),
(177,422,l),
(374,422,l),
(374,0,l)
);
},
{
closed = 1;
nodes = (
(182,621,o),
(210,670,o),
(273,670,cs),
(315,670,o),
(362,621,o),
(384,602,c),
(378,574,o),
(376,542,o),
(375,508,cs),
(374,493,o),
(374,478,o),
(374,462,c),
(178,462,l)
);
},
{
alignment = -1;
pos = (374,0);
ref = LowerSerifBottomLeft;
},
{
alignment = -1;
pos = (460,0);
ref = LowerSerifBottomRight;
},
{
alignment = -1;
pos = (667,0);
ref = LowerSerifBottomLeft;
},
{
alignment = -1;
pos = (753,0);
ref = LowerSerifBottomRight;
},
{
alignment = -1;
pos = (91,0);
ref = LowerSerifBottomLeft;
},
{
alignment = -1;
pos = (177,0);
ref = LowerSerifBottomRight;
}
);
width = 846;
}
);
metricLeft = f;
metricRight = i;
},
{
glyphname = f_f_l;
lastChange = "2022-12-02 21:46:50 +0000";
layers = (
{
layerId = m01;
shapes = (
{
closed = 1;
nodes = (
(460,0,l),
(460,435,l),
(552,435,l),
(552,475,l),
(460,475,l),
(462,637,o),
(473,687,o),
(536,687,cs),
(588,687,o),
(598,614,o),
(637,614,cs),
(640,614,o),
(643,614,o),
(646,615,cs),
(650,616,o),
(654,618,o),
(657,620,c),
(657,0,l),
(743,0,l),
(743,721,ls),
(743,727,o),
(731,727,o),
(725,727,c),
(591,699,o),
(651,724,o),
(530,724,cs),
(507,724,o),
(488,721,o),
(472,716,cs),
(440,706,o),
(418,687,o),
(404,661,c),
(378,691,o),
(306,704,o),
(267,704,cs),
(121,704,o),
(95,617,o),
(91,475,c),
(5,475,l),
(5,435,l),
(91,435,l),
(91,0,l),
(177,0,l),
(177,435,l),
(374,435,l),
(374,0,l)
);
},
{
closed = 1;
nodes = (
(182,634,o),
(210,670,o),
(273,670,cs),
(315,670,o),
(362,621,o),
(384,602,c),
(380,581,o),
(377,558,o),
(376,534,cs),
(374,511,o),
(374,500,o),
(374,475,c),
(178,475,l)
);
},
{
closed = 0;
nodes = (
(536,683,l)
);
},
{
alignment = -1;
pos = (657,0);
ref = LowerSerifBottomLeft;
},
{
alignment = -1;
pos = (743,0);
ref = LowerSerifBottomRight;
},
{
alignment = -1;
pos = (91,0);
ref = LowerSerifBottomLeft;
},
{
alignment = -1;
pos = (177,0);
ref = LowerSerifBottomRight;
},
{
alignment = -1;
pos = (374,0);
ref = LowerSerifBottomLeft;
},
{
alignment = -1;
pos = (460,0);
ref = LowerSerifBottomRight;
}
);
width = 836;
}
);
metricLeft = f;
metricRight = l;
},
{
glyphname = f_i;
lastChange = "2022-12-02 21:45:56 +0000";
layers = (
{
layerId = m01;
shapes = (
{
closed = 1;
nodes = (
(177,0,l),
(177,417,l),
(177,612,o),
(185,690,o),
(253,690,cs),
(325,690,o),
(355,614,o),
(394,614,cs),
(412,614,o),
(434,628,o),
(434,658,cs),
(434,704,o),
(335,724,o),
(247,724,cs),
(88,724,o),
(91,585,o),
(91,423,c),
(91,0,l)
);
},
{
pos = (91,0);
ref = LowerSerifBottomLeft;
},
{
pos = (177,0);
ref = LowerSerifBottomRight;
},
{
closed = 1;
nodes = (
(334,423,l),
(334,462,l),
(5,462,l),
(5,422,l)
);
},
{
closed = 1;
nodes = (
(470,0,l),
(470,469,ls),
(470,475,o),
(462,475,o),
(456,475,c),
(395,462,o),
(400,462,o),
(332,462,c),
(332,423,l),
(388,423,o),
(384,413,o),
(384,377,cs),
(384,0,l)
);
},
{
pos = (384,0);
ref = LowerSerifBottomLeft;
},
{
pos = (470,0);
ref = LowerSerifBottomRight;
}
);
width = 563;
}
);
metricLeft = f;
metricRight = i;
},
{
glyphname = f_l;
lastChange = "2022-12-02 21:46:54 +0000";
layers = (
{
layerId = m01;
shapes = (
{
closed = 1;
nodes = (
(177,0,l),
(177,430,l),
(177,435,l),
(269,435,l),
(269,475,l),
(177,475,l),
(179,637,o),
(190,687,o),
(253,687,cs),
(305,687,o),
(315,614,o),
(354,614,cs),
(361,614,o),
(368,616,o),
(374,620,c),
(374,0,l),
(460,0,l),
(460,721,ls),
(460,727,o),
(448,727,o),
(442,727,c),
(308,699,o),
(368,724,o),
(247,724,cs),
(101,724,o),
(92,620,o),
(91,475,c),
(5,475,l),
(5,435,l),
(91,435,l),
(91,0,l)
);
},
{
pos = (91,0);
ref = LowerSerifBottomLeft;
},
{
pos = (177,0);
ref = LowerSerifBottomRight;
},
{
closed = 0;
nodes = (
(253,683,l)
);
},
{
pos = (374,0);
ref = LowerSerifBottomLeft;
},
{
pos = (460,0);
ref = LowerSerifBottomRight;
}
);
width = 553;
}
);
metricLeft = f;
metricRight = l;
},
{
glyphname = f_t;
lastChange = "2022-12-02 21:46:56 +0000";
layers = (
{
hints = (
{
place = (753, 30);
place = (753, 30);
type = Stem;
}
);
layerId = m01;
shapes = (
{
pos = (91,0);
ref = LowerSerifBottomLeft;
},
{
pos = (177,0);
ref = LowerSerifBottomRight;
},
{
closed = 1;
nodes = (
(91,435,l),
(91,0,l),
(177,0,l),
(177,430,l),
(177,435,l),
(325,435,l),
(325,124,ls),
(325,36,o),
(335,-18,o),
(440,-18,cs),
(503,-18,o),
(542,17,o),
(549,25,c),
(535,52,l),
(527,46,o),
(499,22,o),
(466,22,cs),
(421,22,o),
(411,46,o),
(411,130,cs),
(411,435,l),
(512,435,l),
(512,475,l),
(406,475,l),
(406,592,ls),
(406,664,o),
(375,724,o),
(247,724,cs),
(101,724,o),
(92,618,o),
(91,475,c),
(5,475,l),
(5,435,l)
);
},
{
closed = 1;
nodes = (
(179,635,o),
(192,690,o),
(277,690,cs),
(331,690,o),
(372,659,o),
(372,592,cs),
(372,549,o),
(326,475,o),
(265,475,cs),
(177,475,l)
);
}
);
width = 566;
}
);
metricLeft = f;
metricRight = t;
},
{
glyphname = o_o;
lastChange = "2022-12-02 21:44:14 +0000";
layers = (
{
layerId = m01;
shapes = (
{
alignment = -1;
ref = o;
},
{
attr = {
fill = "1";
identifier = ID0x7f8295e72100;
};
closed = 1;
nodes = (
(470,19,o),
(456,148,o),
(456,247,cs),
(456,350,o),
(480,418,o),
(563,418,cs),
(670,418,o),
(684,294,o),
(684,195,cs),
(684,110,o),
(671,19,o),
(578,19,cs)
);
},
{
attr = {
fill = "1";
identifier = ID0x7f8295e72100;
};
closed = 1;
nodes = (
(425,28,o),
(493,-16,o),
(570,-16,cs),
(685,-16,o),
(779,91,o),
(779,222,cs),
(779,355,o),
(685,453,o),
(570,453,cs),
(489,453,o),
(419,400,o),
(384,325,c),
(389,99,l)
);
}
);
width = 826;
}
);
metricLeft = o;
metricRight = o;
},
{
glyphname = "nga-sinhala";
lastChange = "2022-12-03 07:47:36 +0000";
layers = (
{
background = {
shapes = (
{
attr = {
strokeHeight = 40;
strokeWidth = 30;
};
closed = 0;
nodes = (
(285,554,l),
(285,606,o),
(318,676,o),
(354,712,cs),
(367,725,o),
(387,730,o),
(403,739,cs),
(435,754,o),
(473,773,o),
(508,773,cs),
(529,773,o),
(550,767,o),
(568,750,cs),
(594,724,o),
(598,688,o),
(598,651,cs),
(598,636,o),
(597,621,o),
(597,606,cs),
(597,598,o),
(598,591,o),
(598,583,cs),
(598,579,ls),
(598,564,o),
(593,529,o),
(594,528,cs),
(598,524,o),
(666,529,o),
(677,517,c),
(678,517,o),
(678,510,o),
(678,502,cs),
(678,486,o),
(677,462,o),
(677,459,cs),
(677,403,o),
(689,347,o),
(689,291,cs),
(689,276,o),
(688,231,o),
(687,230,c),
(683,228,o),
(678,227,o),
(672,227,cs),
(652,227,o),
(622,237,o),
(608,237,cs),
(606,237,o),
(604,237,o),
(603,236,c),
(602,236,o),
(602,234,o),
(602,231,cs),
(602,226,o),
(603,218,o),
(603,217,cs),
(603,213,o),
(603,209,o),
(603,205,cs),
(603,181,ls),
(605,159,o),
(615,113,o),
(615,74,cs),
(615,43,o),
(609,17,o),
(590,7,cs),
(585,4,o),
(580,3,o),
(575,3,cs),
(566,3,o),
(557,7,o),
(550,13,cs),
(513,42,o),
(498,90,o),
(498,136,cs),
(498,138,o),
(499,141,o),
(499,144,cs),
(499,148,o),
(498,151,o),
(496,152,cs),
(494,153,o),
(492,154,o),
(490,154,cs),
(456,154,o),
(444,6,o),
(392,6,cs),
(386,6,o),
(380,8,o),
(373,12,cs),
(360,20,o),
(348,26,o),
(339,39,cs),
(324,60,o),
(315,293,o),
(314,314,cs),
(312,346,o),
(312,377,o),
(312,410,c),
(312,410,o),
(312,411,o),
(312,411,c),
(319,412,o),
(327,413,o),
(335,413,cs),
(365,413,o),
(395,404,o),
(423,404,cs),
(451,404,o),
(477,413,o),
(498,448,cs),
(506,462,o),
(511,470,o),
(511,479,cs),
(511,486,o),
(508,494,o),
(501,507,cs),
(492,525,o),
(434,532,o),
(415,535,cs),
(403,538,o),
(393,538,o),
(382,538,cs),
(357,538,o),
(333,534,o),
(306,534,cs),
(297,534,ls),
(276,534,o),
(255,536,o),
(235,536,cs),
(199,536,o),
(164,531,o),
(131,506,cs),
(121,499,o),
(119,485,o),
(116,474,cs),
(115,470,o),
(115,466,o),
(115,463,cs),
(115,421,o),
(191,417,o),
(220,416,cs),
(250,415,o),
(283,412,o),
(313,412,c)
);
},
{
closed = 0;
nodes = (
(560,273,l),
(560,274,o),
(559,274,o),
(559,275,cs)
);
}
);
};
layerId = m01;
shapes = (
{
attr = {
strokeHeight = 40;
strokeWidth = 30;
};
closed = 0;
nodes = (
(285,554,l),
(285,606,o),
(318,676,o),
(354,712,cs),
(367,725,o),
(387,730,o),
(403,739,cs),
(435,754,o),
(473,773,o),
(508,773,cs),
(529,773,o),
(550,767,o),
(568,750,cs),
(594,724,o),
(598,688,o),
(598,651,cs),
(598,636,o),
(597,621,o),
(597,606,cs),
(597,598,o),
(598,591,o),
(598,583,cs),
(598,579,ls),
(598,564,o),
(593,529,o),
(594,528,cs),
(598,524,o),
(666,529,o),
(677,517,c),
(678,517,o),
(678,510,o),
(678,502,cs),
(678,486,o),
(677,462,o),
(677,459,cs),
(677,403,o),
(689,347,o),
(689,291,cs),
(689,276,o),
(688,231,o),
(687,230,c),
(683,228,o),
(678,227,o),
(672,227,cs),
(652,227,o),
(622,237,o),
(608,237,cs),
(606,237,o),
(604,237,o),
(603,236,c),
(602,236,o),
(602,234,o),
(602,231,cs),
(602,226,o),
(603,218,o),
(603,217,cs),
(603,205,l),
(603,181,ls),
(603,159,o),
(615,113,o),
(615,74,cs),
(615,43,o),
(609,17,o),
(590,7,cs),
(585,4,o),
(580,3,o),
(575,3,cs),
(566,3,o),
(557,7,o),
(550,13,cs),
(513,42,o),
(498,90,o),
(498,136,cs),
(498,138,o),
(499,141,o),
(499,144,cs),
(499,148,o),
(498,151,o),
(496,152,cs),
(494,153,o),
(492,154,o),
(490,154,cs),
(456,154,o),
(444,6,o),
(392,6,cs),
(386,6,o),
(380,8,o),
(373,12,cs),
(360,20,o),
(348,26,o),
(339,39,cs),
(324,60,o),
(315,293,o),
(314,314,cs),
(312,346,o),
(312,378,o),
(312,411,c)
);
},
{
attr = {
strokeHeight = 40;
strokeWidth = 30;
};
closed = 1;
nodes = (
(319,412,o),
(327,413,o),
(335,413,cs),
(365,413,o),
(395,404,o),
(423,404,cs),
(451,404,o),
(477,413,o),
(498,448,cs),
(506,462,o),
(511,470,o),
(511,479,cs),
(511,486,o),
(508,494,o),
(501,507,cs),
(492,525,o),
(434,532,o),
(415,535,cs),
(403,538,o),
(393,538,o),
(382,538,cs),
(357,538,o),
(333,534,o),
(306,534,cs),
(297,534,ls),
(276,534,o),
(255,536,o),
(235,536,cs),
(199,536,o),
(164,531,o),
(131,506,cs),
(121,499,o),
(119,485,o),
(116,474,cs),
(115,470,o),
(115,466,o),
(115,463,cs),
(115,421,o),
(191,417,o),
(220,416,cs),
(250,415,o),
(282,411,o),
(312,411,c)
);
}
);
width = 804;
}
);
unicode = 3486;
},
{
glyphname = zero;
lastChange = "2022-12-03 05:17:45 +0000";
layers = (
{
layerId = m01;
shapes = (
{
attr = {
fill = "1";
};
closed = 1;
nodes = (
(409,-16,o),
(514,141,o),
(514,344,cs),
(514,550,o),
(409,710,o),
(280,710,cs),
(151,710,o),
(45,534,o),
(45,344,cs),
(45,127,o),
(151,-16,o),
(280,-16,cs)
);
},
{
attr = {
fill = "1";
};
closed = 1;
nodes = (
(180,21,o),
(145,167,o),
(145,344,cs),
(145,521,o),
(186,673,o),
(280,673,cs),
(374,673,o),
(413,521,o),
(413,344,cs),
(413,167,o),
(380,21,o),
(280,21,cs)
);
}
);
width = 559;
}
);
metricLeft = "=O";
metricRight = "=O";
unicode = 48;
},
{
glyphname = one;
lastChange = "2022-12-03 05:29:14 +0000";
layers = (
{
layerId = m01;
shapes = (
{
closed = 1;
nodes = (
(244,0,l),
(328,0,l),
(328,695,l),
(328,700,o),
(314,700,o),
(309,700,c),
(254,689,o),
(215,669,o),
(155,669,c),
(155,642,l),
(242,642,o),
(244,631,o),
(244,599,cs)
);
},
{
pos = (244,0);
ref = LowerSerifBottomLeft;
},
{
pos = (328,0);
ref = LowerSerifBottomRight;
}
);
width = 559;
}
);
unicode = 49;
},
{
glyphname = two;
lastChange = "2022-12-03 05:34:42 +0000";
layers = (
{
hints = (
{
place = (55, 30);
place = (55, 30);
type = Stem;
}
);
layerId = m01;
shapes = (
{
closed = 1;
nodes = (
(481,0,l),
(479,3,o),
(479,10,o),
(479,20,cs),
(479,62,o),
(490,156,o),
(493,186,c),
(466,187,l),
(452,127,o),
(456,72,o),
(384,72,cs),
(203,72,ls),
(199,72,o),
(195,78,o),
(195,83,cs),
(195,85,o),
(195,87,o),
(197,88,cs),
(256,138,o),
(488,334,o),
(488,516,cs),
(488,643,o),
(393,716,o),
(297,716,cs),
(172,716,o),
(66,652,o),
(65,533,cs),
(64,465,o),
(116,412,o),
(168,412,cs),
(214,412,o),
(244,424,o),
(250,447,c),
(199,445,o),
(151,488,o),
(151,555,cs),
(151,610,o),
(202,676,o),
(267,676,cs),
(345,676,o),
(386,626,o),
(386,541,cs),
(386,534,o),
(386,527,o),
(385,519,cs),
(371,337,o),
(75,32,o),
(66,22,c),
(66,0,l)
);
}
);
width = 559;
}
);
unicode = 50;
},
{
glyphname = three;
lastChange = "2022-12-03 06:23:23 +0000";
layers = (
{
layerId = m01;
shapes = (
{
closed = 1;
nodes = (
(406,-16,o),
(507,68,o),
(507,185,cs),
(507,282,o),
(431,370,o),
(360,371,cs),
(348,371,o),
(347,375,o),
(361,384,cs),
(419,422,o),
(485,467,o),
(485,551,cs),
(485,651,o),
(408,716,o),
(272,716,cs),
(156,716,o),
(77,667,o),
(77,586,cs),
(77,529,o),
(116,488,o),
(168,488,cs),
(200,488,o),
(227,502,o),
(232,523,c),
(193,523,o),
(163,551,o),
(163,594,cs),
(163,645,o),
(205,677,o),
(272,677,cs),
(345,677,o),
(389,634,o),
(389,547,cs),
(389,452,o),
(263,346,o),
(209,320,cs),
(193,312,o),
(210,285,o),
(225,293,cs),
(304,335,o),
(404,295,o),
(404,191,cs),
(404,86,o),
(353,27,o),
(266,27,cs),
(188,27,o),
(157,72,o),
(157,107,cs),
(157,141,o),
(141,169,o),
(110,169,cs),
(81,169,o),
(70,148,o),
(70,116,cs),
(70,53,o),
(135,-16,o),
(268,-16,cs)
);
}
);
width = 559;
}
);
unicode = 51;
},
{
glyphname = four;
lastChange = "2022-12-03 06:10:57 +0000";
layers = (
{
layerId = m01;
shapes = (
{
closed = 1;
nodes = (
(324,174,l),
(324,0,l),
(409,0,l),
(409,174,l),
(419,174,ls),
(490,174,o),
(497,166,o),
(498,120,c),
(525,120,l),
(525,158,o),
(523,150,o),
(523,174,cs),
(523,214,ls),
(523,239,o),
(525,230,o),
(525,266,c),
(498,266,l),
(497,220,o),
(490,214,o),
(419,214,cs),
(409,214,l),
(409,711,l),
(375,711,l),
(47,202,l),
(47,174,l)
);
},
{
closed = 1;
nodes = (
(319,525,ls),
(321,528,o),
(324,528,o),
(324,524,cs),
(324,214,l),
(121,214,l)
);
},
{
pos = (324,0);
ref = LowerSerifBottomLeft;
scale = (1.29,1);
},
{
pos = (409,0);
ref = LowerSerifBottomRight;
}
);
width = 559;
}
);
unicode = 52;
},
{
glyphname = five;
lastChange = "2022-12-03 06:11:32 +0000";
layers = (
{
hints = (
{
place = (412, 30);
place = (412, 30);
type = Stem;
}
);
layerId = m01;
shapes = (
{
closed = 1;
nodes = (
(432,-9,o),
(504,126,o),
(504,218,cs),
(504,355,o),
(396,421,o),
(321,421,cs),
(220,421,o),
(198,390,o),
(195,390,cs),
(194,390,o),
(194,392,o),
(195,394,cs),
(248,612,l),
(473,612,o),
(522,622,o),
(529,704,c),
(503,697,o),
(472,695,o),
(441,695,cs),
(379,695,o),
(282,704,o),
(231,713,c),
(130,307,ls),
(127,294,o),
(135,287,o),
(144,287,cs),
(153,287,o),
(163,293,o),
(168,307,cs),
(190,369,o),
(239,382,o),
(278,382,cs),
(356,382,o),
(401,332,o),
(401,232,cs),
(401,172,o),
(358,32,o),
(253,32,cs),
(175,32,o),
(144,77,o),
(144,112,cs),
(144,146,o),
(128,174,o),
(97,174,cs),
(68,174,o),
(57,153,o),
(57,121,cs),
(57,58,o),
(96,-9,o),
(229,-9,cs)
);
}
);
width = 559;
}
);
unicode = 53;
},
{
glyphname = six;
lastChange = "2022-12-03 05:34:42 +0000";
layers = (
{
layerId = m01;
shapes = (
{
closed = 1;
nodes = (
(418,-16,o),
(515,97,o),
(515,233,cs),
(515,363,o),
(431,464,o),
(303,464,cs),
(240,464,o),
(191,439,o),
(150,380,cs),
(145,373,o),
(140,372,o),
(140,382,cs),
(140,465,o),
(170,539,o),
(197,591,cs),
(224,643,o),
(260,674,o),
(303,674,cs),
(397,674,o),
(370,573,o),
(440,573,cs),
(472,573,o),
(490,591,o),
(490,622,cs),
(490,675,o),
(419,716,o),
(330,716,cs),
(250,716,o),
(175,670,o),
(122,595,cs),
(69,520,o),
(45,418,o),
(45,305,cs),
(45,117,o),
(135,-16,o),
(277,-16,cs)
);
},
{
closed = 1;
nodes = (
(195,26,o),
(145,103,o),
(145,256,cs),
(145,301,l),
(186,384,o),
(234,419,o),
(290,419,cs),
(367,419,o),
(415,354,o),
(415,229,cs),
(415,90,o),
(366,26,o),
(281,26,cs)
);
}
);
width = 559;
}
);
unicode = 54;
},
{
glyphname = seven;
lastChange = "2022-12-03 06:11:42 +0000";
layers = (
{
layerId = m01;
shapes = (
{
closed = 1;
nodes = (
(367,295,o),
(284,22,cs),
(275,-7,o),
(250,-17,o),
(235,-17,cs),
(199,-17,o),
(167,5,o),
(186,55,cs),
(198,86,o),
(385,490,o),
(447,628,c),
(180,628,ls),
(110,628,o),
(100,615,o),
(91,568,c),
(64,572,l),
(71,620,o),
(73,620,o),
(77,644,cs),
(84,683,ls),
(88,708,o),
(86,709,o),
(93,755,c),
(119,751,l),
(118,744,o),
(118,738,o),
(118,732,cs),
(118,704,o),
(131,700,o),
(174,700,cs),
(540,700,l),
(447,494,o)
);
}
);
width = 559;
}
);
unicode = 55;
},
{
glyphname = eight;
lastChange = "2022-12-03 06:12:31 +0000";
layers = (
{
layerId = m01;
shapes = (
{
closed = 1;
nodes = (
(409,-16,o),
(512,75,o),
(512,190,cs),
(512,274,o),
(455,342,o),
(356,395,c),
(441,435,o),
(478,489,o),
(478,552,cs),
(478,601,o),
(452,645,o),
(407,677,cs),
(369,703,o),
(325,716,o),
(277,716,cs),
(222,716,o),
(176,699,o),
(138,664,cs),
(100,628,o),
(72,582,o),
(72,531,cs),
(72,458,o),
(122,398,o),
(209,351,c),
(106,301,o),
(48,237,o),
(48,160,cs),
(48,60,o),
(151,-16,o),
(277,-16,cs)
);
},
{
closed = 1;
nodes = (
(196,27,o),
(148,79,o),
(148,163,cs),
(148,233,o),
(178,292,o),
(248,332,c),
(304,300,ls),
(389,251,o),
(412,214,o),
(412,159,cs),
(412,78,o),
(366,27,o),
(281,27,cs)
);
},
{
closed = 1;
nodes = (
(273,437,ls),
(191,480,o),
(166,518,o),
(166,567,cs),
(166,631,o),
(203,675,o),
(273,675,cs),
(346,675,o),
(388,619,o),
(388,548,cs),
(388,497,o),
(370,450,o),
(317,414,c)
);
}
);
width = 559;
}
);
unicode = 56;
},
{
glyphname = nine;
lastChange = "2022-12-03 05:34:42 +0000";
layers = (
{
layerId = m01;
shapes = (
{
closed = 1;
nodes = (
(142,716,o),
(45,603,o),
(45,467,cs),
(45,337,o),
(129,236,o),
(257,236,cs),
(320,236,o),
(369,261,o),
(410,320,cs),
(415,327,o),
(420,328,o),
(420,318,cs),
(420,235,o),
(390,161,o),
(363,109,cs),
(336,57,o),
(300,26,o),
(257,26,cs),
(163,26,o),
(190,127,o),
(120,127,cs),
(88,127,o),
(70,109,o),
(70,78,cs),
(70,25,o),
(141,-16,o),
(230,-16,cs),
(310,-16,o),
(385,30,o),
(438,105,cs),
(491,180,o),
(515,282,o),
(515,395,cs),
(515,583,o),
(425,716,o),
(283,716,cs)
);
},
{
closed = 1;
nodes = (
(365,674,o),
(415,597,o),
(415,444,cs),
(415,399,l),
(374,316,o),
(326,281,o),
(270,281,cs),
(193,281,o),
(145,346,o),
(145,471,cs),
(145,610,o),
(194,674,o),
(279,674,cs)
);
}
);
width = 559;
}
);
unicode = 57;
},
{
glyphname = zero.osf;
lastChange = "2022-12-03 06:18:48 +0000";
layers = (
{
layerId = m01;
shapes = (
{
attr = {
fill = "1";
};
closed = 1;
nodes = (
(378,-10,o),
(472,97,o),
(472,220,c),
(472,345,o),
(378,451,o),
(255,451,cs),
(132,451,o),
(37,335,o),
(37,220,c),
(37,89,o),
(132,-10,o),
(255,-10,cs)
);
},
{
attr = {
fill = "1";
};
closed = 1;
nodes = (
(179,41,o),
(116,114,o),
(116,220,cs),
(116,317,o),
(180,399,o),
(255,399,cs),
(330,399,o),
(393,317,o),
(393,220,cs),
(393,114,o),
(331,41,o),
(255,41,cs)
);
}
);
width = 519;
}
);
metricLeft = o;
metricRight = o;
tags = (
"Clean up"
);
},
{
glyphname = one.osf;
lastChange = "2022-12-03 06:18:06 +0000";
layers = (
{
layerId = m01;
shapes = (
{
closed = 1;
nodes = (
(153,0,l),
(153,435,l),
(81,435,l),
(81,0,l)
);
},
{
pos = (81,0);
ref = LowerSerifBottomLeft;
},
{
pos = (153,0);
ref = LowerSerifBottomRight;
},
{
angle = 180;
pos = (153,435);
ref = LowerSerifBottomLeft;
},
{
angle = 180;
pos = (81,435);
ref = LowerSerifBottomRight;
}
);
width = 246;
}
);
metricLeft = n;
metricRight = n;
tags = (
"Clean up"
);
},
{
glyphname = two.osf;
lastChange = "2022-12-03 06:24:04 +0000";
layers = (
{
hints = (
{
place = (34.916, 19.045);
place = (34.916, 19.045);
type = Stem;
},
{
place = (34.653, 18.902);
place = (34.653, 18.902);
type = Stem;
}
);
layerId = m01;
shapes = (
{
closed = 1;
nodes = (
(307,1,ls),
(363,1,o),
(360,-4,o),
(372,-43,c),
(393,-42,l),
(390,-22,o),
(381,7,o),
(381,34,cs),
(381,42,o),
(381,69,o),
(383,71,c),
(179,71,ls),
(168,71,o),
(163,72,o),
(163,76,cs),
(163,77,o),
(164,78,o),
(166,79,cs),
(212,112,o),
(375,251,o),
(375,339,cs),
(375,430,o),
(295,468,o),
(212,468,cs),
(126,468,o),
(41,422,o),
(41,356,cs),
(41,307,o),
(89,269,o),
(132,269,cs),
(168,269,o),
(191,276,o),
(196,292,c),
(156,290,o),
(126,318,o),
(126,362,cs),
(126,397,o),
(166,432,o),
(216,430,cs),
(264,428,o),
(286,405,o),
(286,358,cs),
(286,354,o),
(285,348,o),
(285,342,cs),
(278,243,o),
(143,122,o),
(37,16,c),
(37,1,l)
);
}
);
width = 410;
}
);
metricLeft = o;
metricRight = n;
tags = (
"Clean up"
);
},
{
glyphname = .notdef;
lastChange = "2022-12-02 02:57:02 +0000";
layers = (
{
layerId = m01;
shapes = (
{
closed = 1;
nodes = (
(626,-200,l),
(626,800,l),
(130,800,l),
(130,-200,l)
);
},
{
closed = 1;
nodes = (
(515,752,l),
(515,-150,l),
(240,-150,l),
(240,752,l)
);
}
);
width = 756;
}
);
},
{
glyphname = period;
lastChange = "2022-12-02 03:01:24 +0000";
layers = (
{
layerId = m01;
shapes = (
{
closed = 1;
nodes = (
(135,-12,o),
(162,16,o),
(162,45,cs),
(162,74,o),
(135,105,o),
(103,105,cs),
(72,105,o),
(45,74,o),
(45,45,cs),
(45,16,o),
(72,-12,o),
(103,-12,cs)
);
}
);
width = 207;
}
);
metricLeft = O;
metricRight = O;
unicode = 46;
},
{
glyphname = comma;
lastChange = "2022-12-02 21:47:02 +0000";
layers = (
{
layerId = m01;
shapes = (
{
closed = 1;
nodes = (
(115,0,o),
(123,-3,o),
(123,-14,cs),
(123,-29,o),
(101,-90,o),
(37,-109,c),
(48,-145,l),
(158,-112,o),
(187,-31,o),
(187,24,cs),
(187,85,o),
(147,110,o),
(111,110,cs),
(76,110,o),
(48,85,o),
(48,55,cs),
(48,24,o),
(76,0,o),
(111,0,cs)
);
}
);
width = 232;
}
);
metricLeft = o;
metricRight = O;
unicode = 44;
},
{
glyphname = exclam;
lastChange = "2022-12-02 20:36:30 +0000";
layers = (
{
layerId = m01;
shapes = (
{
closed = 1;
nodes = (
(102,155,l),
(102,260,o),
(137,367,o),
(137,520,cs),
(137,651,ls),
(137,687,o),
(127,716,o),
(88,716,cs),
(49,716,o),
(39,687,o),
(39,651,cs),
(39,524,ls),
(39,368,o),
(75,260,o),
(75,155,c)
);
},
{
pos = (-16,0);
ref = period;
}
);
width = 166;
}
);
metricLeft = H;
metricRight = H;
unicode = 33;
},
{
glyphname = question;
lastChange = "2022-12-02 20:36:42 +0000";
layers = (
{
layerId = m01;
shapes = (
{
closed = 1;
nodes = (
(143,208,o),
(160,178,o),
(168,147,c),
(194,158,l),
(189,178,o),
(180,198,o),
(180,218,cs),
(180,402,o),
(394,374,o),
(394,568,cs),
(394,660,o),
(330,712,o),
(222,716,cs),
(134,719,o),
(68,703,o),
(68,656,cs),
(68,637,o),
(82,618,o),
(103,618,cs),
(138,618,o),
(134,674,o),
(201,674,cs),
(234,674,o),
(287,658,o),
(287,585,cs),
(287,408,o),
(143,406,o),
(143,239,cs)
);
},
{
pos = (75,0);
ref = period;
}
);
width = 439;
}
);
metricLeft = "=O*1.5";
metricRight = O;
unicode = 63;
},
{
glyphname = bullet;
lastChange = "2022-11-27 03:54:16 +0000";
layers = (
{
layerId = m01;
shapes = (
{
closed = 1;
nodes = (
(232,283,o),
(259,309,o),
(275,344,o),
(275,365,qs),
(275,385,o),
(260,420,o),
(233,446,o),
(198,461,o),
(178,461,qs),
(158,461,o),
(122,446,o),
(95,420,o),
(79,385,o),
(79,365,qs),
(79,344,o),
(95,309,o),
(121,283,o),
(156,268,o),
(175,268,qs),
(196,268,o)
);
}
);
width = 354;
}
);
metricLeft = "=O*1.75";
metricRight = "=O*1.75";
unicode = 8226;
},
{
glyphname = numbersign;
lastChange = "2022-11-26 21:21:48 +0000";
layers = (
{
layerId = m01;
shapes = (
{
closed = 1;
nodes = (
(355,700,l),
(295,700,l),
(189,0,l),
(249,0,l)
);
},
{
closed = 1;
nodes = (
(557,700,l),
(497,700,l),
(391,0,l),
(451,0,l)
);
},
{
closed = 1;
nodes = (
(670,477,l),
(85,477,l),
(78,423,l),
(662,423,l)
);
},
{
closed = 1;
nodes = (
(637,274,l),
(54,274,l),
(45,220,l),
(628,220,l)
);
}
);
width = 715;
}
);
metricLeft = "=O";
metricRight = "=O";
unicode = 35;
},
{
glyphname = slash;
lastChange = "2022-11-26 18:04:18 +0000";
layers = (
{
layerId = m01;
shapes = (
{
closed = 1;
nodes = (
(370,700,l),
(313,700,l),
(23,0,l),
(87,0,l)
);
}
);
width = 393;
}
);
metricLeft = "=O/2";
metricRight = "=O/2";
unicode = 47;
},
{
glyphname = backslash;
lastChange = "2022-11-26 18:04:15 +0000";
layers = (
{
layerId = m01;
shapes = (
{
closed = 1;
nodes = (
(370,0,l),
(80,700,l),
(23,700,l),
(306,0,l)
);
}
);
width = 393;
}
);
metricLeft = "=O/2";
metricRight = "=O/2";
unicode = 92;
},
{
glyphname = hyphen;
lastChange = "2022-12-02 01:00:12 +0000";
layers = (
{
layerId = m01;
shapes = (
{
closed = 1;
nodes = (
(56,282,l),
(56,221,l),
(357,221,l),
(357,282,l)
);
}
);
width = 413;
}
);
metricLeft = "=O*1.25";
metricRight = "=O*1.25";
unicode = 45;
},
{
glyphname = emdash;
lastChange = "2022-12-02 00:58:55 +0000";
layers = (
{
layerId = m01;
shapes = (
{
closed = 1;
nodes = (
(56,282,l),
(56,221,l),
(918,221,l),
(918,282,l)
);
}
);
width = 974;
}
);
metricLeft = "=O*1.25";
metricRight = "=O*1.25";
unicode = 8212;
},
{
glyphname = underscore;
lastChange = "2022-12-02 02:51:48 +0000";
layers = (
{
layerId = m01;
shapes = (
{
closed = 1;
nodes = (
(56,-59,l),
(56,-120,l),
(586,-120,l),
(586,-59,l)
);
}
);
width = 642;
}
);
metricLeft = "=O*1.25";
metricRight = "=O*1.25";
unicode = 95;
},
{
glyphname = parenleft;
lastChange = "2022-12-02 21:47:08 +0000";
layers = (
{
layerId = m01;
shapes = (
{
closed = 1;
nodes = (
(195,-77,l),
(113,45,o),
(93,166,o),
(93,368,cs),
(93,529,o),
(98,613,o),
(189,776,c),
(169,800,l),
(61,664,o),
(5,514,o),
(5,354,cs),
(5,191,o),
(65,36,o),
(174,-101,c)
);
}
);
width = 204;
}
);
metricLeft = n;
metricRight = "=n/2";
unicode = 40;
},
{
glyphname = braceleft;
lastChange = "2022-12-02 21:47:15 +0000";
layers = (
{
layerId = m01;
shapes = (
{
closed = 1;
nodes = (
(170,250,o),
(162,295,o),
(142,328,o),
(108,348,o),
(80,353,q),
(80,358,l),
(109,364,o),
(143,389,o),
(163,425,o),
(170,472,o),
(170,500,qs),
(170,664,ls),
(170,713,o),
(201,769,o),
(244,780,q),
(244,800,l),
(196,800,o),
(134,784,o),
(100,747,o),
(86,688,o),
(86,644,qs),
(86,485,ls),
(86,458,o),
(81,419,o),
(63,391,o),
(32,372,o),
(5,367,q),
(5,344,l),
(28,342,o),
(60,320,o),
(79,286,o),
(86,246,o),
(86,225,qs),
(86,46,ls),
(86,6,o),
(103,-48,o),
(140,-81,o),
(201,-94,o),
(248,-94,q),
(248,-74,l),
(201,-60,o),
(170,-7,o),
(170,43,qs),
(170,223,ls)
);
}
);
width = 293;
}
);
metricLeft = "=n";
metricRight = "=O";
unicode = 123;
},
{
glyphname = bracketleft;
lastChange = "2022-11-26 18:01:23 +0000";
layers = (
{
layerId = m01;
shapes = (
{
closed = 1;
nodes = (
(90,754,l),
(90,-127,l),
(303,-127,l),
(303,-89,l),
(176,-89,l),
(176,716,l),
(303,716,l),
(303,754,l)
);
}
);
width = 326;
}
);
metricLeft = "=O*2";
metricRight = "=O/2";
unicode = 91;
},
{
glyphname = quotesingle;
lastChange = "2022-12-03 06:28:41 +0000";
layers = (
{
layerId = m01;
shapes = (
{
closed = 1;
nodes = (
(127,576,l),
(127,617,o),
(162,685,o),
(162,740,cs),
(162,780,o),
(133,800,o),
(104,800,cs),
(75,800,o),
(45,780,o),
(45,740,cs),
(45,685,o),
(81,617,o),
(81,576,c)
);
}
);
width = 207;
}
);
metricLeft = O;
metricRight = O;
unicode = 39;
},
{
glyphname = at;
lastChange = "2022-12-02 02:55:35 +0000";
layers = (
{
layerId = m01;
shapes = (
{
closed = 1;
nodes = (
(296,94,o),
(315,198,o),
(335,257,cs),
(359,324,o),
(396,407,o),
(480,407,cs),
(518,407,o),
(548,397,o),
(535,361,cs),
(457,136,ls),
(446,103,o),
(404,94,o),
(373,94,cs)
);
},
{
closed = 1;
nodes = (
(699,22,l),
(674,-11,o),
(604,-64,o),
(432,-60,cs),
(242,-56,o),
(122,93,o),
(122,288,cs),
(122,464,o),
(238,653,o),
(432,657,cs),
(625,661,o),
(763,525,o),
(770,373,cs),
(778,192,o),
(715,94,o),
(605,94,cs),
(569,94,o),
(523,134,o),
(537,174,cs),
(630,435,l),
(563,435,l),
(555,417,l),
(537,428,o),
(518,435,o),
(492,435,cs),
(388,435,o),
(287,333,o),
(253,237,cs),
(222,146,o),
(246,66,o),
(363,66,cs),
(415,66,o),
(477,94,o),
(487,124,cs),
(488,128,o),
(493,126,o),
(493,124,cs),
(498,86,o),
(559,53,o),
(605,53,cs),
(715,53,o),
(823,170,o),
(815,373,cs),
(808,561,o),
(656,703,o),
(432,700,cs),
(207,697,o),
(45,495,o),
(45,288,cs),
(45,103,o),
(164,-105,o),
(432,-110,cs),
(639,-114,o),
(707,-21,o),
(730,6,c)
);
}
);
width = 860;
}
);
metricLeft = O;
metricRight = O;
unicode = 64;
},
{
glyphname = bar;
lastChange = "2022-11-26 18:03:34 +0000";
layers = (
{
layerId = m01;
shapes = (
{
closed = 1;
nodes = (
(90,774,l),
(90,-200,l),
(156,-200,l),
(156,774,l)
);
}
);
width = 246;
}
);
metricLeft = "=O*2";
metricRight = "=O*2";
unicode = 124;
},
{
glyphname = cent;
lastChange = "2022-11-27 04:46:10 +0000";
layers = (
{
layerId = m01;
shapes = (
{
alignment = -1;
pos = (0,7);
ref = c;
},
{
closed = 1;
nodes = (
(230,569,l),
(230,-101,l),
(282,-101,l),
(282,569,l)
);
}
);
width = 470;
}
);
unicode = 162;
},
{
glyphname = dollar;
lastChange = "2022-11-27 04:17:53 +0000";
layers = (
{
layerId = m01;
shapes = (
{
closed = 1;
nodes = (
(435,0,o),
(539,40,o),
(539,173,cs),
(539,268,o),
(485,299,o),
(403,356,cs),
(258,447,ls),
(200,487,o),
(179,537,o),
(179,565,cs),
(179,619,o),
(218,664,o),
(283,664,cs),
(387,664,o),
(404,596,o),
(409,579,cs),
(418,547,o),
(434,534,o),
(454,534,cs),
(476,534,o),
(499,546,o),
(499,579,cs),
(499,636,o),
(403,700,o),
(278,700,cs),
(151,700,o),
(76,597,o),
(76,510,cs),
(76,435,o),
(116,411,o),
(162,378,cs),
(328,277,ls),
(372,245,o),
(435,197,o),
(435,134,cs),
(435,69,o),
(405,36,o),
(286,36,cs),
(176,36,o),
(135,116,o),
(135,154,cs),
(135,180,o),
(114,199,o),
(90,199,cs),
(63,199,o),
(45,180,o),
(45,154,cs),
(45,68,o),
(176,0,o),
(310,0,cs)
);
},
{
closed = 1;
nodes = (
(262,800,l),
(262,-120,l),
(318,-120,l),
(318,800,l)
);
}
);
width = 584;
}
);
metricLeft = S;
metricRight = S;
unicode = 36;
},
{
glyphname = euro;
lastChange = "2022-11-27 04:48:14 +0000";
layers = (
{
layerId = m01;
shapes = (
{
closed = 1;
nodes = (
(522,-15,o),
(601,87,o),
(614,124,c),
(580,139,l),
(557,92,o),
(484,27,o),
(401,27,cs),
(227,27,o),
(222,192,o),
(222,331,cs),
(222,468,o),
(224,673,o),
(376,673,cs),
(474,673,o),
(514,627,o),
(526,614,cs),
(547,591,o),
(560,559,o),
(560,522,c),
(587,522,l),
(587,557,o),
(585,667,o),
(585,700,c),
(558,700,l),
(558,671,o),
(554,665,o),
(531,665,cs),
(511,665,o),
(459,715,o),
(376,715,cs),
(182,715,o),
(100,503,o),
(100,342,cs),
(100,179,o),
(158,-15,o),
(377,-15,cs)
);
},
{
closed = 1;
nodes = (
(435,438,l),
(45,438,l),
(45,382,l),
(435,382,l)
);
},
{
closed = 1;
nodes = (
(435,318,l),
(45,318,l),
(45,262,l),
(435,262,l)
);
}
);
width = 634;
}
);
metricLeft = C;
metricRight = C;
unicode = 8364;
},
{
glyphname = plus;
lastChange = "2022-11-26 21:20:55 +0000";
layers = (
{
layerId = m01;
shapes = (
{
closed = 1;
nodes = (
(66,372,l),
(66,318,l),
(528,318,l),
(528,372,l)
);
},
{
closed = 1;
nodes = (
(270,114,l),
(324,114,l),
(324,576,l),
(270,576,l)
);
}
);
width = 594;
}
);
unicode = 43;
},
{
glyphname = minus;
lastChange = "2022-11-26 21:21:37 +0000";
layers = (
{
layerId = m01;
shapes = (
{
closed = 1;
nodes = (
(76,372,l),
(76,318,l),
(518,318,l),
(518,372,l)
);
}
);
width = 594;
}
);
unicode = 8722;
},
{
glyphname = equal;
lastChange = "2022-11-26 21:21:28 +0000";
layers = (
{
layerId = m01;
shapes = (
{
closed = 1;
nodes = (
(76,292,l),
(76,238,l),
(518,238,l),
(518,292,l)
);
},
{
closed = 1;
nodes = (
(76,415,l),
(76,361,l),
(518,361,l),
(518,415,l)
);
}
);
width = 594;
}
);
unicode = 61;
},
{
glyphname = greater;
lastChange = "2022-12-02 21:47:23 +0000";
layers = (
{
layerId = m01;
shapes = (
{
closed = 1;
nodes = (
(90,503,l),
(463,303,l),
(463,363,l),
(90,563,l)
);
},
{
closed = 1;
nodes = (
(463,285,l),
(463,345,l),
(90,145,l),
(90,85,l)
);
}
);
width = 480;
}
);
metricLeft = "=O*2";
metricRight = n;
unicode = 62;
},
{
glyphname = less;
lastChange = "2022-12-02 21:47:26 +0000";
layers = (
{
layerId = m01;
shapes = (
{
closed = 1;
nodes = (
(5,363,l),
(5,303,l),
(378,503,l),
(378,563,l)
);
},
{
closed = 1;
nodes = (
(378,145,l),
(5,345,l),
(5,285,l),
(378,85,l)
);
}
);
width = 468;
}
);
metricLeft = "=n";
metricRight = "=O*2";
unicode = 60;
},
{
glyphname = asciitilde;
lastChange = "2022-12-02 00:46:01 +0000";
layers = (
{
layerId = m01;
shapes = (
{
closed = 1;
nodes = (
(340,207,o),
(373,245,o),
(378,317,c),
(350,317,l),
(343,285,o),
(335,272,o),
(313,271,cs),
(258,268,o),
(196,304,o),
(144,301,cs),
(96,299,o),
(63,265,o),
(56,193,c),
(85,193,l),
(91,224,o),
(99,236,o),
(121,237,cs),
(175,240,o),
(249,203,o),
(296,205,cs)
);
}
);
width = 434;
}
);
metricLeft = "=O*1.25";
metricRight = "=O*1.25";
unicode = 126;
},
{
glyphname = asciicircum;
lastChange = "2022-11-26 22:07:05 +0000";
layers = (
{
layerId = m01;
shapes = (
{
closed = 1;
nodes = (
(487,333,l),
(317,706,l),
(277,706,l),
(107,333,l),
(147,333,l),
(280,625,l),
(407,333,l)
);
}
);
width = 600;
}
);
unicode = 94;
},
{
glyphname = percent;
lastChange = "2022-11-26 21:56:32 +0000";
layers = (
{
layerId = m01;
shapes = (
{
attr = {
fill = "1";
identifier = ID0x7fe2621dd190;
};
closed = 1;
nodes = (
(183,435,o),
(174,491,o),
(174,562,cs),
(174,632,o),
(185,691,o),
(223,691,cs),
(260,691,o),
(272,632,o),
(272,562,cs),
(272,491,o),
(263,435,o),
(223,435,cs)
);
},
{
attr = {
fill = "1";
identifier = ID0x7fe2449d0e10;
};
closed = 1;
nodes = (
(487,-10,o),
(535,54,o),
(535,136,cs),
(535,218,o),
(487,283,o),
(436,283,cs),
(384,283,o),
(337,212,o),
(337,136,cs),
(337,49,o),
(384,-10,o),
(436,-10,cs)
);
},
{
attr = {
fill = "1";
identifier = ID0x7fe2449d0e10;
};
closed = 1;
nodes = (
(396,11,o),
(387,65,o),
(387,136,cs),
(387,206,o),
(398,262,o),
(436,262,cs),
(473,262,o),
(485,206,o),
(485,136,cs),
(485,65,o),
(476,11,o),
(436,11,cs)
);
},
{
closed = 1;
nodes = (
(90,0,l),
(140,0,l),
(569,700,l),
(519,700,l),
(477,677,o),
(434,663,o),
(388,663,cs),
(318,663,o),
(259,712,o),
(223,712,cs),
(171,712,o),
(124,638,o),
(124,562,cs),
(124,475,o),
(171,414,o),
(223,414,cs),
(274,414,o),
(322,480,o),
(322,562,cs),
(322,610,o),
(301,651,o),
(290,664,c),
(323,647,o),
(357,636,o),
(396,636,cs),
(421,636,o),
(466,647,o),
(499,667,c)
);
}
);
width = 659;
}
);
metricLeft = "=O*2";
metricRight = "=O*2";
unicode = 37;
},
{
glyphname = grave;
lastChange = "2022-12-02 21:48:13 +0000";
layers = (
{
layerId = m01;
shapes = (
{
closed = 1;
nodes = (
(260,574,l),
(233,599,o),
(170,672,o),
(118,712,cs),
(104,723,o),
(86,739,o),
(60,739,cs),
(36,739,o),
(17,718,o),
(18,698,cs),
(18,654,o),
(36,649,o),
(198,574,c)
);
}
);
width = 284;
}
);
metricLeft = "=o/2";
metricRight = "=o/2";
unicode = 96;
},
{
export = 0;
glyphname = _corner.leftSerif;
lastChange = "2022-11-18 16:59:19 +0000";
layers = (
{
layerId = m01;
shapes = (
{
closed = 0;
nodes = (
(0,120,l),
(0,35,o),
(-27,25,o),
(-91,25,c),
(-91,-2,l),
(-56,-2,o),
(-12,0,o),
(13,0,c)
);
}
);
width = 200;
}
);
},
{
export = 0;
glyphname = _corner.rightSerif;
lastChange = "2022-11-18 16:59:23 +0000";
layers = (
{
layerId = m01;
shapes = (
{
closed = 0;
nodes = (
(-13,0,l),
(12,0,o),
(63,-2,o),
(98,-2,c),
(98,25,l),
(34,25,o),
(0,35,o),
(0,120,c)
);
}
);
width = 200;
}
);
},
{
export = 0;
glyphname = AsteriskBar;
lastChange = "2022-11-26 22:07:38 +0000";
layers = (
{
layerId = m01;
shapes = (
{
closed = 1;
nodes = (
(96,454,o),
(108,468,o),
(108,485,cs),
(107,507,o),
(88,546,o),
(88,591,cs),
(88,636,o),
(106,671,o),
(106,698,cs),
(106,715,o),
(95,728,o),
(76,728,cs),
(57,728,o),
(45,715,o),
(45,697,cs),
(45,675,o),
(66,636,o),
(66,591,cs),
(66,547,o),
(46,512,o),
(46,485,cs),
(46,468,o),
(58,454,o),
(77,454,cs)
);
}
);
width = 153;
}
);
metricLeft = O;
metricRight = O;
},
{
export = 0;
glyphname = LowerSerifBottomLeft;
lastChange = "2022-11-18 16:59:34 +0000";
layers = (
{
layerId = m01;
shapes = (
{
closed = 1;
nodes = (
(0,120,l),
(0,35,o),
(-26,25,o),
(-76,25,c),
(-76,-2,l),
(-41,-2,o),
(-12,0,o),
(13,0,c)
);
}
);
width = 600;
}
);
},
{
export = 0;
glyphname = LowerSerifBottomRight;
lastChange = "2022-11-18 16:59:55 +0000";
layers = (
{
layerId = m01;
shapes = (
{
closed = 1;
nodes = (
(12,0,o),
(41,-2,o),
(76,-2,c),
(76,25,l),
(26,25,o),
(0,35,o),
(0,120,c),
(-13,0,l)
);
}
);
width = 80;
}
);
},
{
export = 0;
glyphname = SerifBottomLeft;
lastChange = "2022-11-18 17:00:01 +0000";
layers = (
{
layerId = m01;
shapes = (
{
closed = 1;
nodes = (
(0,120,l),
(0,35,o),
(-32,26,o),
(-96,26,c),
(-96,-2,l),
(-51,-2,o),
(-12,0,o),
(13,0,c)
);
}
);
width = 17;
}
);
},
{
export = 0;
glyphname = SerifBottomRight;
lastChange = "2022-11-18 17:00:15 +0000";
layers = (
{
layerId = m01;
shapes = (
{
closed = 1;
nodes = (
(12,0,o),
(51,-2,o),
(96,-2,c),
(96,25,l),
(32,25,o),
(0,34,o),
(0,119,c),
(-13,0,l)
);
}
);
width = 100;
}
);
},
{
export = 0;
glyphname = SerifDownEF;
lastChange = "2022-11-18 17:00:34 +0000";
layers = (
{
layerId = m01;
shapes = (
{
closed = 1;
nodes = (
(125,0,l),
(125,-42,ls),
(125,-67,o),
(127,-116,o),
(127,-151,c),
(100,-151,l),
(100,-87,o),
(91,-42,o),
(0,-42,c),
(0,0,l)
);
}
);
width = 124;
}
);
},
{
export = 0;
glyphname = SerifSpur;
lastChange = "2022-11-18 15:42:09 +0000";
layers = (
{
layerId = m01;
shapes = (
{
closed = 1;
nodes = (
(0,-42,l),
(-36,-42,o),
(-43,-93,o),
(-43,-165,c),
(-70,-165,l),
(-70,-130,o),
(-68,-43,o),
(-68,0,c),
(0,0,l)
);
}
);
width = 204;
}
);
},
{
export = 0;
glyphname = SerifUpLeft;
lastChange = "2022-11-18 02:42:45 +0000";
layers = (
{
layerId = m01;
shapes = (
{
closed = 1;
nodes = (
(-8,5,o),
(-39,25,o),
(-41,-15,c),
(-60,-15,l),
(-51,-12,o),
(-67,166,o),
(-77,165,c),
(-57,165,l),
(-57,123,o),
(-37,89,o),
(-22,67,c),
(0,38,l),
(0,0,l)
);
}
);
width = 4;
}
);
},
{
export = 0;
glyphname = SerifUpRight;
lastChange = "2022-11-18 17:00:56 +0000";
layers = (
{
layerId = m01;
shapes = (
{
closed = 1;
nodes = (
(113,0,l),
(113,25,o),
(111,86,o),
(111,191,c),
(84,191,l),
(84,111,o),
(50,42,o),
(0,42,c),
(0,0,l)
);
}
